<?xml version="1.0" standalone="no"?>
<!DOCTYPE svg PUBLIC "-//W3C//DTD SVG 1.1//EN" "http://www.w3.org/Graphics/SVG/1.1/DTD/svg11.dtd" >
<svg xmlns="http://www.w3.org/2000/svg" xmlns:xlink="http://www.w3.org/1999/xlink" version="1.1">
<metadata>
Created by FontForge 20170924 at Tue May  8 09:14:36 2007
 By www-data
Copyright (c) 1991 Adobe Systems Incorporated.  All Rights Reserved.Berthold Walbaum Book is a trademark of H. Berthold AG.
</metadata>
<defs>
<font id="WalbaumBook-Regular" horiz-adv-x="542" >
  <font-face 
    font-family="Berthold Walbaum Book"
    font-weight="500"
    font-stretch="normal"
    units-per-em="1000"
    panose-1="0 0 0 0 0 0 0 0 0 0"
    ascent="800"
    descent="-200"
    x-height="483"
    cap-height="706"
    bbox="-136 -260 1166 922"
    underline-thickness="50"
    underline-position="-100"
    stemh="24"
    stemv="98"
    unicode-range="U+0020-FB02"
  />
<missing-glyph horiz-adv-x="271" 
 />
    <glyph glyph-name=".notdef" horiz-adv-x="271" 
 />
    <glyph glyph-name="space" unicode=" " horiz-adv-x="271" 
 />
    <glyph glyph-name="exclam" unicode="!" horiz-adv-x="292" 
d="M178 193h-29c-16 176 -21 214 -42 366c-2 22 -5 44 -5 66c0 50 18 89 64 89c62 0 62 -73 62 -87c0 -21 -3 -42 -6 -63c-23 -161 -28 -197 -44 -371zM117 11c-13 12 -20 30 -20 48c0 37 31 68 68 68s67 -31 67 -68c0 -38 -30 -68 -67 -68c-18 0 -36 8 -48 20z" />
    <glyph glyph-name="quotedbl" unicode="&#x22;" horiz-adv-x="396" 
d="M336 700l-36 -255h-19l-32 242c-1 8 -1 12 -1 17c0 32 24 45 46 45c6 0 44 0 42 -49zM148 700l-35 -255h-19l-33 242c-1 8 -1 12 -1 17c0 32 25 45 46 45c6 0 45 0 42 -49z" />
    <glyph glyph-name="numbersign" unicode="#" horiz-adv-x="667" 
d="M430 259l-37 -259h-61l38 259h-101l-38 -259h-58l36 259h-168v54h176l13 97h-167v57h174l32 241h63l-35 -241h101l32 241h59l-33 -241h168v-57h-175l-13 -97h168v-54h-174zM276 313h101l13 97h-100z" />
    <glyph glyph-name="dollar" unicode="$" 
d="M253 691v101h37v-101c33 -2 67 -4 106 -23c39 -20 66 -53 66 -86c0 -29 -20 -50 -48 -50c-13 0 -42 5 -49 46c-2 13 -1 25 -4 38c-7 37 -31 43 -71 48v-239c113 -54 199 -95 199 -218c0 -67 -26 -123 -62 -158c-43 -41 -94 -50 -137 -58v-109h-37v109
c-36 1 -75 3 -116 23c-39 19 -89 61 -89 123c0 37 17 67 54 67c21 0 49 -13 49 -58c0 -7 -3 -38 -3 -45c0 -69 63 -77 105 -82v289c-81 38 -187 86 -187 203c0 29 7 56 18 78c41 83 118 94 169 102zM253 444v220c-31 -4 -107 -16 -107 -98c0 -63 46 -92 107 -122zM290 291
v-271c33 7 69 15 99 46c23 24 37 58 37 89c0 70 -59 98 -136 136z" />
    <glyph glyph-name="percent" unicode="%" horiz-adv-x="833" 
d="M220 0l342 688h48l-341 -688h-49zM176 696c83 1 156 -82 156 -230c0 -144 -68 -225 -154 -225c-98 0 -156 108 -156 229c0 139 70 225 154 226zM176 670c-24 0 -41 -15 -50 -37c-15 -37 -17 -123 -17 -166c0 -25 1 -124 18 -163c16 -37 43 -37 51 -37c35 0 46 28 50 37
c14 38 16 120 16 164c0 20 -1 123 -18 164c-16 38 -46 38 -50 38zM654 448c83 1 156 -81 156 -230c0 -143 -67 -225 -154 -225c-99 0 -156 109 -156 230c0 139 70 224 154 225zM654 422c-24 0 -41 -15 -50 -37c-15 -37 -17 -123 -17 -165c0 -26 1 -125 18 -164
c16 -37 43 -37 51 -37c35 0 46 28 50 37c14 38 16 121 16 164c0 21 -1 123 -18 164c-16 38 -46 38 -50 38z" />
    <glyph glyph-name="ampersand" unicode="&#x26;" horiz-adv-x="750" 
d="M652 291l24 8c12 -42 24 -83 24 -130c0 -113 -82 -177 -151 -177c-64 0 -100 46 -125 78c-26 -27 -75 -78 -176 -78c-142 0 -204 113 -204 202c0 125 106 193 161 229c-22 42 -45 88 -45 143c0 86 69 149 163 149c53 0 98 -23 98 -81s-37 -102 -123 -171
c82 -144 102 -176 163 -272c18 36 54 109 54 176c0 28 -7 56 -26 76c-27 28 -65 28 -97 28v24h291v-24c-60 1 -102 -5 -128 -92c-7 -24 -13 -49 -20 -74c-16 -53 -37 -96 -57 -139c45 -61 74 -87 111 -87c27 0 84 20 84 107c0 39 -10 69 -21 105zM285 485c10 8 20 17 28 26
c25 25 53 68 53 112c-1 51 -32 65 -62 65c-45 0 -72 -33 -72 -73c0 -19 8 -37 16 -55c12 -26 25 -50 37 -75zM217 400c-38 -27 -90 -63 -90 -134c0 -50 35 -113 60 -149c48 -70 84 -83 117 -83c52 0 85 38 104 59c-97 146 -117 178 -191 307z" />
    <glyph glyph-name="quoteright" unicode="&#x2019;" horiz-adv-x="250" 
d="M56 400l-13 21c16 12 36 26 53 43c31 32 57 78 57 116c0 7 -1 14 -1 21c-12 -9 -24 -19 -46 -19c-34 0 -63 24 -63 63s30 69 70 69c49 0 85 -43 85 -108c0 -31 -9 -92 -71 -154c-27 -27 -46 -38 -71 -52z" />
    <glyph glyph-name="parenleft" unicode="(" horiz-adv-x="396" 
d="M386 -234l-15 -26c-96 58 -292 175 -292 489c0 304 189 426 292 492l15 -24c-42 -28 -107 -72 -151 -160c-46 -89 -58 -227 -58 -322c0 -105 12 -233 68 -323c41 -65 92 -96 141 -126z" />
    <glyph glyph-name="parenright" unicode=")" horiz-adv-x="396" 
d="M8 696l15 25c96 -58 292 -175 292 -489c0 -304 -189 -425 -292 -492l-15 24c41 28 107 73 151 160c46 90 58 228 58 322c0 101 -11 232 -68 324c-41 65 -92 96 -141 126z" />
    <glyph glyph-name="asterisk" unicode="*" horiz-adv-x="375" 
d="M200 559c16 9 31 18 45 30c12 11 22 24 36 32c8 4 17 7 26 7c22 0 46 -17 46 -49c0 -43 -38 -45 -52 -45c-8 0 -48 6 -58 6c-12 0 -25 -2 -38 -3c17 -14 34 -29 54 -40c31 -16 49 -26 49 -55c0 -27 -23 -48 -48 -48c-35 0 -42 28 -45 40c-4 14 -5 27 -8 40
c-4 17 -12 32 -19 48c-16 -30 -17 -35 -26 -79c-3 -17 -10 -48 -47 -48c-27 0 -49 24 -49 47c0 29 23 41 49 54c28 14 39 25 55 41c-15 1 -30 3 -44 3c-6 0 -17 0 -29 -2c-9 -1 -17 -3 -26 -3c-28 0 -48 15 -48 46s21 49 45 49c12 -1 23 -6 32 -12c12 -9 21 -19 31 -29
c14 -12 30 -21 46 -30c-4 19 -9 38 -16 55c-5 12 -12 23 -17 35c-2 6 -4 14 -4 21c0 23 18 44 49 44s46 -21 46 -43c0 -10 -3 -19 -7 -28c-4 -10 -9 -20 -13 -30c-7 -18 -11 -36 -15 -54z" />
    <glyph glyph-name="plus" unicode="+" horiz-adv-x="667" 
d="M364 261v-261h-60v261h-262v60h262v260h60v-260h261v-60h-261z" />
    <glyph glyph-name="comma" unicode="," horiz-adv-x="250" 
d="M56 -195l-13 21c16 12 36 26 53 43c31 32 57 78 57 117c0 6 -1 13 -1 20c-12 -9 -24 -19 -46 -19c-34 0 -63 24 -63 63s30 69 70 69c49 0 85 -43 85 -109c0 -29 -8 -90 -71 -153c-27 -27 -46 -38 -71 -52z" />
    <glyph glyph-name="hyphen" unicode="-" horiz-adv-x="375" 
d="M43 293h289v-57h-289v57z" />
    <glyph glyph-name="period" unicode="." horiz-adv-x="250" 
d="M77 11c-13 12 -20 30 -20 48c0 37 31 68 68 68s67 -32 67 -68c0 -38 -30 -68 -67 -68c-18 0 -36 8 -48 20z" />
    <glyph glyph-name="slash" unicode="/" horiz-adv-x="375" 
d="M7 0l294 706h63l-295 -706h-62z" />
    <glyph glyph-name="zero" unicode="0" 
d="M272 699c93 0 161 -70 195 -135c37 -72 43 -154 43 -211c0 -45 -4 -90 -14 -133c-15 -69 -45 -131 -84 -170c-42 -42 -94 -61 -142 -61c-71 0 -146 38 -195 132c-39 78 -46 160 -46 221c0 40 3 80 11 118c14 70 45 135 86 176c38 38 93 63 146 63zM268 668
c-22 0 -44 -10 -59 -24c-28 -27 -39 -74 -43 -93c-13 -66 -17 -173 -17 -226c0 -22 0 -59 4 -106c3 -45 9 -99 27 -137c14 -30 41 -63 88 -63c79 0 99 79 108 141c8 61 12 154 12 206c0 45 -2 90 -7 134c-4 39 -10 81 -29 115c-25 44 -60 54 -84 53z" />
    <glyph glyph-name="one" unicode="1" 
d="M106 470l-16 22c135 97 167 148 201 209h49l-1 -117v-473l1 -87h110v-24h-330v24h109l1 87v405l1 59c-44 -44 -61 -59 -125 -105z" />
    <glyph glyph-name="two" unicode="2" 
d="M174 314l-17 -26c-16 11 -35 24 -50 40c-37 35 -66 92 -66 158c0 115 90 211 231 211c121 0 207 -79 207 -195c0 -115 -70 -172 -201 -277c-57 -45 -98 -83 -148 -129h134c150 0 163 7 206 104l27 -11l-76 -189h-413l-3 19c144 133 197 182 253 246
c37 42 103 121 103 230c0 44 -11 90 -42 121c-22 22 -57 36 -95 36c-94 0 -152 -83 -152 -169c0 -53 22 -100 52 -131c15 -15 32 -26 50 -38z" />
    <glyph glyph-name="three" unicode="3" 
d="M125 688h341l3 -19l-236 -224c21 5 42 11 69 11c102 0 181 -80 181 -221c0 -138 -78 -245 -228 -245c-151 0 -192 105 -210 154l31 11c12 -30 23 -60 53 -88c20 -19 55 -42 107 -42c118 0 127 117 127 212c0 76 -5 184 -102 184c-58 0 -101 -44 -143 -87l-24 20l248 236
h-224l-37 -94l-28 12z" />
    <glyph glyph-name="four" unicode="4" 
d="M12 258l245 333c34 51 43 64 75 116h47v-449h85v87h34v-211h-34v88h-85v-222h-107v222h-260v36zM272 258v299l-218 -299h218z" />
    <glyph glyph-name="five" unicode="5" 
d="M144 687h146c105 -1 122 12 145 67l27 -9c-20 -67 -37 -118 -92 -143c-39 -19 -84 -18 -126 -18h-90l-36 -170c28 27 68 66 153 66c155 0 215 -123 215 -237c0 -150 -96 -252 -237 -252c-16 0 -47 1 -80 14c-98 37 -122 122 -138 181l32 8c11 -43 23 -85 61 -122
c26 -26 64 -47 110 -47c25 0 57 6 85 35c29 30 49 75 49 182c0 37 -2 90 -20 128c-26 56 -74 70 -109 70c-50 0 -83 -24 -100 -42c-30 -31 -38 -63 -46 -98l-30 7z" />
    <glyph glyph-name="six" unicode="6" 
d="M164 391c8 11 16 21 25 30c29 29 72 49 124 49c132 0 184 -119 184 -228c0 -127 -67 -252 -218 -252c-103 0 -159 58 -188 116c-34 68 -41 155 -41 215c0 173 54 264 98 309c61 63 131 68 166 68c111 0 164 -68 164 -125c0 -30 -15 -56 -45 -56c-41 0 -51 47 -52 90
c0 22 -1 64 -65 64c-35 0 -61 -15 -81 -34c-41 -40 -55 -100 -61 -136s-8 -73 -10 -110zM276 430c-33 0 -71 -17 -93 -64c-17 -35 -19 -78 -19 -115c0 -114 19 -231 118 -231c103 0 103 135 103 187c0 68 -3 125 -22 165c-20 42 -54 59 -87 58z" />
    <glyph glyph-name="seven" unicode="7" 
d="M130 688h415c-48 -71 -86 -127 -128 -208c-100 -194 -111 -336 -122 -480h-126c46 181 79 306 268 587h-316l-44 -113l-25 10z" />
    <glyph glyph-name="eight" unicode="8" 
d="M362 399c31 -15 64 -31 89 -57c32 -32 54 -81 54 -138c0 -111 -89 -213 -234 -213c-121 0 -236 66 -236 193c0 74 41 116 57 131c29 28 54 38 82 49c-37 19 -105 55 -105 148c0 111 96 185 214 185c117 0 192 -71 192 -157c0 -41 -19 -78 -44 -101
c-22 -22 -46 -31 -69 -40zM332 412c28 19 70 47 70 127c0 70 -39 127 -124 127c-77 0 -126 -47 -126 -106c0 -27 12 -53 30 -72c24 -25 65 -42 150 -76zM206 350c-31 -17 -56 -31 -76 -74c-15 -35 -16 -70 -16 -87c0 -119 83 -168 161 -168c89 0 146 62 146 136
c0 101 -88 139 -215 193z" />
    <glyph glyph-name="nine" unicode="9" 
d="M375 298c-8 -11 -16 -21 -25 -30c-29 -29 -72 -49 -124 -49c-132 0 -184 119 -184 228c0 128 68 252 219 252c100 0 157 -56 187 -116c34 -68 41 -155 41 -215c0 -173 -54 -264 -98 -309c-60 -61 -128 -68 -165 -68c-112 0 -165 68 -165 125c0 30 15 56 45 56
c42 0 53 -47 53 -90c0 -22 1 -64 65 -64c34 0 61 15 80 34c41 40 55 100 61 136s8 73 10 110zM263 259c33 0 71 17 93 64c17 35 19 78 19 114c0 115 -19 233 -118 233c-103 0 -103 -136 -103 -188c0 -68 3 -125 22 -165c20 -43 54 -59 87 -58z" />
    <glyph glyph-name="colon" unicode=":" horiz-adv-x="292" 
d="M116 338c-12 12 -20 30 -20 48c0 36 31 67 68 67c38 0 68 -31 68 -67c0 -38 -31 -68 -68 -68c-18 0 -35 7 -48 20zM116 11c-12 12 -20 30 -20 48c0 37 31 68 68 68c38 0 68 -32 68 -68c0 -38 -31 -68 -68 -68c-18 0 -35 8 -48 20z" />
    <glyph glyph-name="semicolon" unicode=";" horiz-adv-x="292" 
d="M106 332c-12 12 -19 30 -19 48c0 36 30 67 67 67s68 -31 68 -67c0 -38 -31 -68 -68 -68c-17 0 -35 7 -48 20zM97 -194l-13 21c16 12 36 26 53 43c31 32 57 78 57 117c0 6 -1 13 -1 20c-12 -9 -24 -19 -46 -19c-34 0 -63 24 -63 63s30 69 70 69c49 0 85 -43 85 -109
c0 -29 -8 -90 -71 -153c-27 -27 -46 -38 -71 -52z" />
    <glyph glyph-name="less" unicode="&#x3c;" horiz-adv-x="667" 
d="M667 61v-64l-667 322v70l667 320v-64l-600 -291z" />
    <glyph glyph-name="equal" unicode="=" horiz-adv-x="667" 
d="M667 231v-58h-667v58h667zM667 408v-59h-667v59h667z" />
    <glyph glyph-name="greater" unicode="&#x3e;" horiz-adv-x="667" 
d="M667 319l-667 -322v64l600 293l-600 291v64l667 -320v-70z" />
    <glyph glyph-name="question" unicode="?" horiz-adv-x="437" 
d="M197 247v-64h-32v75c0 37 2 61 49 89l30 17c42 26 58 47 58 167c0 66 -4 155 -82 155c-57 0 -59 -40 -59 -47c0 -8 2 -16 5 -21c3 -7 7 -14 10 -21s5 -15 5 -24c0 -32 -22 -54 -53 -54s-58 24 -58 67c0 56 56 128 159 128c139 0 177 -119 177 -195c0 -35 -7 -67 -20 -94
c-27 -54 -69 -74 -123 -98c-56 -25 -65 -30 -66 -80zM138 11c-12 12 -20 30 -20 48c0 37 31 68 68 68c38 0 68 -31 68 -68c0 -38 -31 -68 -68 -68c-18 0 -35 8 -48 20z" />
    <glyph glyph-name="at" unicode="@" horiz-adv-x="896" 
d="M800 55l24 -30c-114 -120 -248 -149 -359 -149c-248 0 -396 151 -396 366c0 228 180 470 435 470c202 0 322 -154 322 -328c0 -169 -107 -315 -212 -315c-39 0 -83 22 -78 98c-9 -16 -17 -29 -32 -46c-30 -31 -70 -50 -107 -50c-63 0 -130 52 -130 170
c0 152 110 283 218 283c34 0 62 -13 81 -33c17 -17 24 -35 29 -51l13 56h60l-30 -135c-10 -41 -39 -172 -39 -205c0 -22 7 -43 32 -43c60 0 153 122 153 270c0 163 -116 290 -281 290c-108 0 -199 -52 -260 -127c-68 -84 -105 -208 -105 -308c0 -184 117 -322 335 -322
c188 0 290 101 327 139zM572 405c-4 49 -33 83 -77 83c-53 0 -83 -48 -94 -64c-32 -51 -62 -132 -62 -207c0 -18 0 -101 75 -101c117 0 163 227 158 289z" />
    <glyph glyph-name="A" unicode="A" horiz-adv-x="708" 
d="M140 111l201 603h20l198 -601l31 -89h90v-24h-319v24h103l-23 84l-43 138h-182l-46 -138l-25 -84h104v-24h-223v24h83zM390 274l-79 253l-85 -253h164z" />
    <glyph glyph-name="B" unicode="B" horiz-adv-x="667" 
d="M27 682v24h312c65 -2 125 -4 163 -42c25 -25 43 -70 43 -122c0 -120 -94 -143 -151 -157c43 -7 91 -14 127 -35c79 -46 80 -127 80 -157s-3 -96 -51 -145c-46 -46 -104 -47 -162 -48h-362v24h93l1 95v468l-1 95h-92zM321 677h-92l-1 -90v-191h79c74 2 120 15 120 123
c0 37 -5 78 -16 105c-20 49 -57 51 -90 53zM327 366h-99v-247l1 -92h108c41 2 94 4 125 67c16 33 19 65 19 97c0 36 -4 73 -19 106c-30 66 -90 68 -135 69z" />
    <glyph glyph-name="C" unicode="C" horiz-adv-x="708" 
d="M635 254v-197c-54 -29 -134 -70 -245 -70c-193 0 -332 133 -332 363c0 225 133 366 344 366c105 0 180 -32 233 -55v-186h-30c-2 35 -5 67 -25 107c-16 32 -63 105 -174 105c-60 0 -114 -22 -148 -55c-58 -56 -72 -148 -72 -274c0 -140 17 -231 69 -285
c31 -32 81 -56 142 -56c89 0 147 51 181 121c23 48 25 80 27 116h30z" />
    <glyph glyph-name="D" unicode="D" horiz-adv-x="792" 
d="M27 682v24h392c80 -5 204 -13 271 -155c32 -68 39 -138 39 -193c0 -69 -11 -144 -40 -205c-69 -146 -190 -150 -276 -153h-386v24h92l1 93v467l-1 98h-92zM232 678l-1 -94v-467l1 -89h148c51 1 97 1 144 49c39 41 81 132 81 276c0 130 -33 231 -81 279
c-44 45 -99 46 -167 46h-125z" />
    <glyph glyph-name="E" unicode="E" horiz-adv-x="688" 
d="M28 706h561l7 -220h-26c-8 54 -17 108 -58 149c-40 40 -87 41 -145 41h-135l-1 -78v-222h63c74 3 110 21 113 119v30h27v-336h-27v39c-3 88 -18 118 -115 120h-61v-241l1 -81h167c44 2 89 4 133 47c57 56 64 123 68 169h29l-8 -242h-593v24h93l1 84v490l-1 84h-93v24z
" />
    <glyph glyph-name="F" unicode="F" horiz-adv-x="604" 
d="M29 706h556l7 -213h-27c-2 32 -5 71 -37 120c-41 61 -79 65 -162 65h-134l-1 -81v-219h65c29 2 59 4 83 28c28 29 28 71 29 101v21h26v-338h-26v34c0 26 -1 50 -9 70c-19 53 -68 56 -98 57h-70v-237l1 -90h93v-24h-296v24h92l1 90v483l-1 85h-92v24z" />
    <glyph glyph-name="G" unicode="G" horiz-adv-x="771" 
d="M661 141l1 -82c-53 -26 -152 -73 -267 -73c-183 0 -335 124 -335 364c0 259 172 367 340 367c93 0 173 -31 235 -55v-200h-25c-6 33 -15 76 -48 129c-52 82 -116 97 -172 97c-198 0 -201 -232 -201 -352c0 -68 3 -151 33 -213c20 -42 70 -108 170 -108c28 0 66 5 107 28
c48 27 51 58 53 89v102l-1 80h-103v23h293v-23h-79l-1 -80v-93z" />
    <glyph glyph-name="H" unicode="H" horiz-adv-x="771" 
d="M448 706h295v-24h-92l-1 -93v-464l1 -101h92v-24h-295v24h91l1 101v226h-310v-226l1 -101h92v-24h-296v24h91l1 101v464l-1 93h-91v24h296v-24h-92l-1 -93v-214h310v214l-1 93h-91v24z" />
    <glyph glyph-name="I" unicode="I" horiz-adv-x="354" 
d="M30 706h296v-24h-92l-1 -93v-467l1 -98h92v-24h-296v24h91l1 98v467l-1 93h-91v24z" />
    <glyph glyph-name="J" unicode="J" horiz-adv-x="458" 
d="M135 706h290v-24h-86l-1 -83v-439c0 -43 -1 -91 -37 -128c-38 -39 -96 -42 -126 -42c-43 0 -87 7 -117 37c-19 17 -33 45 -33 74c0 45 28 66 58 66c29 0 52 -20 52 -53c0 -17 -8 -34 -20 -46c-16 -16 -18 -18 -18 -25c0 -15 19 -25 55 -25c74 0 75 50 76 132v449l-1 83
h-92v24z" />
    <glyph glyph-name="K" unicode="K" horiz-adv-x="729" 
d="M377 706h213v-24h-87l-40 -64l-86 -143l43 -82l143 -279l50 -90h97v-24h-312v24h82l-34 72l-144 278h-70v-262l1 -88h91v-24h-295v24h91l1 88v481l-1 89h-91v24h295v-24h-91l-1 -89v-191h65l130 216l37 64h-87v24z" />
    <glyph glyph-name="L" unicode="L" horiz-adv-x="667" 
d="M29 682v24h295v-24h-91l-1 -97v-467l1 -89h165c46 2 92 4 132 45c48 49 60 128 69 185h27v-259h-597v24h91l1 94v467l-1 97h-91z" />
    <glyph glyph-name="M" unicode="M" horiz-adv-x="938" 
d="M468 159l218 547h219v-24h-92l-1 -78v-478l1 -102h92v-24h-313v24h108l1 102v535l-269 -674h-16l-264 674l-1 -57v-478l1 -102h109v-24h-232v24h92l1 102v478l-1 78h-92v24h225z" />
    <glyph glyph-name="N" unicode="N" horiz-adv-x="750" 
d="M26 706h226l346 -503v387l-1 92h-104v24h223v-24h-86l-1 -92v-599l-16 -5l-464 675v-542l1 -95h107v-24h-231v24h92l1 95v471l-1 92h-92v24z" />
    <glyph glyph-name="O" unicode="O" horiz-adv-x="771" 
d="M381 716c208 2 329 -149 329 -349c0 -168 -82 -378 -326 -378c-44 0 -86 7 -125 22c-65 27 -122 81 -155 141c-30 54 -46 126 -46 199c0 227 130 363 323 365zM389 688c-71 0 -114 -28 -134 -48c-38 -38 -68 -100 -68 -290c0 -49 2 -93 7 -136c4 -30 9 -60 21 -88
c36 -84 114 -108 170 -108c55 0 100 21 128 49c57 57 67 156 67 278c0 42 -1 85 -5 128c-5 60 -18 214 -186 215z" />
    <glyph glyph-name="P" unicode="P" horiz-adv-x="583" 
d="M348 323h-117v-213l1 -86h91v-24h-296v24h92l1 86v484l-1 88h-92v24h305c45 -2 92 -3 135 -23c66 -31 92 -98 92 -173c0 -27 -3 -92 -48 -137c-48 -48 -114 -49 -163 -50zM323 677h-91l-1 -83v-243h92c82 7 120 30 120 157c0 163 -75 167 -120 169z" />
    <glyph glyph-name="Q" unicode="Q" horiz-adv-x="771" 
d="M519 -189h-97c-22 0 -45 0 -66 8c-43 17 -46 53 -50 110c-5 52 -23 65 -50 81c-51 28 -64 35 -96 68c-26 27 -102 104 -102 272c0 229 133 366 327 366c207 0 325 -153 325 -349c0 -169 -83 -378 -326 -378c-13 0 -26 1 -39 2c-11 1 -22 3 -32 5c13 -5 25 -11 38 -17
c47 -24 54 -51 62 -87c12 -45 26 -55 65 -57h41v-24zM389 687c-71 1 -114 -28 -134 -48c-38 -37 -68 -100 -68 -290c0 -49 2 -93 7 -135c4 -30 9 -60 21 -88c36 -84 114 -108 170 -108c55 0 100 21 128 49c57 57 67 155 67 277c0 43 -1 86 -5 129c-5 59 -18 213 -186 214z
" />
    <glyph glyph-name="R" unicode="R" horiz-adv-x="688" 
d="M28 682v24h327c39 -1 93 -3 132 -42c17 -18 41 -57 41 -127c0 -126 -91 -146 -164 -162c184 -18 187 -56 201 -236c8 -95 26 -116 100 -115v-24h-61c-30 1 -62 1 -89 13c-55 25 -60 83 -64 129l-6 74c-10 120 -44 139 -149 142h-66v-241l1 -93h93v-24h-296v24h92l1 93
v475l-1 90h-92zM294 676h-63l-1 -84v-204h62c47 2 120 5 120 140c0 142 -69 145 -118 148z" />
    <glyph glyph-name="S" unicode="S" 
d="M43 233h29c7 -42 16 -101 68 -154c47 -47 100 -56 140 -56c106 0 157 68 157 136c0 82 -74 114 -191 161c-85 35 -190 77 -190 202c0 121 97 197 227 197c70 0 124 -22 178 -43l4 -157h-30c-9 46 -16 82 -52 118c-40 40 -85 48 -116 48c-64 0 -135 -39 -135 -113
c0 -65 52 -91 79 -104c21 -10 128 -54 152 -65c45 -21 146 -68 146 -192c0 -113 -87 -224 -259 -224c-82 0 -138 22 -199 47z" />
    <glyph glyph-name="T" unicode="T" horiz-adv-x="688" 
d="M30 706h626v-226h-30c-3 35 -7 79 -38 131c-36 61 -85 64 -133 66h-56l-1 -90v-461l1 -102h108v-24h-328v24h108l1 102v461l-1 90h-46c-58 -1 -102 -1 -144 -68c-33 -53 -36 -95 -38 -129h-29v226z" />
    <glyph glyph-name="U" unicode="U" horiz-adv-x="771" 
d="M29 706h298v-24h-99l-1 -85v-382c1 -99 3 -193 189 -193c188 0 200 82 203 171v404l-1 85h-101v24h221v-24h-87l-1 -85v-364c-1 -131 -2 -243 -261 -243c-37 0 -125 4 -181 27c-89 38 -91 116 -92 212v368l-1 85h-86v24z" />
    <glyph glyph-name="V" unicode="V" horiz-adv-x="646" 
d="M436 707h209v-24h-71l-29 -80l-208 -615h-23l-202 602l-32 93h-80v24h302v-24h-102l28 -92l138 -424l146 436l25 80h-101v24z" />
    <glyph glyph-name="W" unicode="W" horiz-adv-x="1021" 
d="M1 683v24h301v-24h-103l23 -82l124 -416l121 416l23 82h-96v24h317v-24h-100l19 -82l108 -416l141 416l24 82h-95v24h210v-24h-79l-32 -89l-205 -605h-22l-173 640l-191 -640h-23l-186 604l-30 90h-76z" />
    <glyph glyph-name="X" unicode="X" horiz-adv-x="708" 
d="M25 706h323v-24h-104l31 -62l91 -174l106 172l38 64h-86v24h210v-24h-83l-52 -81l-115 -187l160 -295l55 -95h88v-24h-321v24h99l-44 88l-105 193l-123 -198l-49 -83h104v-24h-228v24h81l59 90l140 223l-144 264l-46 81h-85v24z" />
    <glyph glyph-name="Y" unicode="Y" horiz-adv-x="625" 
d="M410 706h214v-24h-78l-41 -77l-127 -250v-240l1 -91h92v-24h-297v24h92l1 92v239l-143 250l-46 77h-78v24h316v-24h-104l37 -72l118 -215l109 215l35 72h-101v24z" />
    <glyph glyph-name="Z" unicode="Z" horiz-adv-x="688" 
d="M95 706h514l-422 -681h152c104 0 181 8 228 94c31 56 31 102 32 136h29v-255h-588l423 677h-167c-47 0 -106 -1 -145 -69c-28 -48 -29 -87 -29 -117h-27v215z" />
    <glyph glyph-name="bracketleft" unicode="[" horiz-adv-x="333" 
d="M116 -246v952h200v-29h-111v-894h111v-29h-200z" />
    <glyph glyph-name="backslash" unicode="\" horiz-adv-x="375" 
d="M9 706h62l295 -706h-63z" />
    <glyph glyph-name="bracketright" unicode="]" horiz-adv-x="333" 
d="M16 706h200v-952h-200v29h111v894h-111v29z" />
    <glyph glyph-name="asciicircum" unicode="^" horiz-adv-x="729" 
d="M399 706l174 -356h-76l-131 273l-134 -273h-76l180 356h63z" />
    <glyph glyph-name="underscore" unicode="_" horiz-adv-x="500" 
d="M510 -75v-50h-520v50h520z" />
    <glyph glyph-name="quoteleft" unicode="&#x2018;" horiz-adv-x="250" 
d="M193 706l13 -21c-17 -12 -36 -26 -53 -43c-31 -32 -57 -79 -57 -117c0 -7 0 -14 1 -20c12 9 24 19 46 19c34 0 62 -25 62 -63c0 -39 -30 -69 -70 -69c-48 0 -84 43 -84 108c0 31 8 91 70 154c27 27 47 38 72 52z" />
    <glyph glyph-name="a" unicode="a" 
d="M492 24h25v-24h-73c-13 0 -24 0 -36 2c-59 7 -69 44 -75 67c-19 -27 -55 -79 -158 -79c-17 0 -63 1 -94 32c-15 15 -37 49 -37 113c0 38 8 70 33 96c28 28 56 34 143 52c58 12 85 22 119 34v36c-1 68 -2 118 -81 118c-78 0 -79 -49 -80 -80c-1 -21 -2 -51 -48 -51
c-21 0 -49 0 -49 42c0 13 3 25 8 37c24 59 98 75 172 75c40 0 83 -6 114 -21c62 -31 62 -87 62 -133v-219c-1 -75 8 -97 55 -97zM339 205v86l-90 -27c-52 -16 -96 -35 -96 -134c0 -29 0 -106 68 -106c35 0 57 18 71 32c43 43 45 97 47 149z" />
    <glyph glyph-name="b" unicode="b" horiz-adv-x="583" 
d="M23 707h81c40 1 57 1 95 4l-1 -112v-181c19 28 52 76 144 76c67 0 121 -25 155 -92c27 -54 32 -113 32 -158c0 -163 -81 -257 -193 -257c-19 0 -41 3 -64 12c-48 20 -64 50 -76 71l3 -70h-102l1 100v499l-1 84h-74v24zM313 463c-29 0 -56 -12 -76 -32
c-37 -39 -42 -99 -42 -193c0 -64 2 -111 17 -146c16 -40 49 -72 97 -72c112 0 112 159 112 234c0 45 -2 102 -26 152c-7 14 -27 57 -82 57z" />
    <glyph glyph-name="c" unicode="c" horiz-adv-x="500" 
d="M470 163l24 -8c-13 -34 -25 -70 -58 -104c-45 -46 -104 -60 -154 -60c-139 0 -231 107 -231 247c0 141 89 254 237 254c119 0 190 -74 190 -139c0 -35 -26 -51 -52 -51c-47 0 -47 37 -48 57c0 16 0 33 -4 48c-12 41 -48 59 -85 59c-120 0 -127 -150 -127 -223
c0 -100 26 -221 143 -221c28 0 47 6 58 10c72 28 94 91 107 131z" />
    <glyph glyph-name="d" unicode="d" horiz-adv-x="583" 
d="M282 706h109c42 0 56 1 90 4l-1 -106v-493l1 -87h80v-24h-180v77c-13 -25 -45 -85 -138 -85c-105 0 -191 89 -191 249c0 137 68 252 197 252c89 0 113 -48 132 -85v196l-1 78h-98v24zM268 460c-106 -1 -106 -144 -106 -202c0 -92 0 -230 110 -230c109 0 109 149 109 208
c0 40 -1 118 -22 164c-18 37 -50 60 -91 60z" />
    <glyph glyph-name="e" unicode="e" horiz-adv-x="521" 
d="M466 148l26 -9c-29 -69 -71 -149 -212 -149c-43 0 -106 5 -163 62c-57 58 -67 132 -67 191c0 26 2 49 7 70c10 46 35 93 68 123c37 36 94 60 155 60c65 0 117 -26 152 -61c54 -55 59 -117 62 -162h-333c0 -56 0 -117 21 -168c30 -77 96 -85 126 -85c26 0 49 7 67 15
c58 30 80 85 91 113zM162 301h213c-1 38 -2 77 -17 111c-21 46 -58 56 -87 56c-96 0 -104 -107 -109 -167z" />
    <glyph glyph-name="f" unicode="f" horiz-adv-x="313" 
d="M198 571v-88h98v-28h-98v-352l1 -79h83v-24h-266v24h84l1 79v352h-85v28h85v92c2 34 3 68 31 96c32 34 80 41 127 41c25 0 49 -2 71 -9c74 -22 74 -76 74 -83c0 -37 -24 -43 -47 -43c-43 0 -43 30 -43 50c0 17 0 60 -53 60c-63 0 -63 -47 -63 -116z" />
    <glyph glyph-name="g" unicode="g" 
d="M403 449c11 15 29 38 68 38c33 0 63 -18 63 -60c0 -39 -32 -39 -35 -39c-22 0 -31 15 -31 37c0 14 -6 27 -20 27c-15 0 -24 -17 -29 -25c13 -26 23 -45 23 -82c0 -90 -59 -160 -166 -160c-61 0 -92 20 -115 36c-37 -13 -71 -31 -71 -66c0 -46 52 -46 94 -46
c22 0 129 3 154 3c33 0 96 -1 137 -42c22 -23 40 -65 40 -110c0 -43 -17 -86 -47 -115c-58 -58 -158 -58 -187 -58c-186 0 -232 83 -232 132c0 73 68 89 98 96c-22 8 -45 17 -64 35c-20 20 -35 52 -35 83c0 69 59 94 92 108c-13 16 -35 45 -35 97c0 87 62 156 172 156
c72 0 101 -24 126 -45zM275 472c-73 0 -75 -80 -75 -142c0 -61 11 -121 75 -121c73 0 73 80 73 149c0 31 0 114 -73 114zM312 12c-102 1 -195 -1 -195 -93c0 -81 76 -106 165 -106c125 0 197 49 197 115c0 18 -5 38 -22 54c-29 29 -70 30 -145 30z" />
    <glyph glyph-name="h" unicode="h" horiz-adv-x="625" 
d="M22 706h90c41 1 55 1 94 4l-1 -100v-219c17 30 60 105 173 105c21 0 47 -3 73 -13c67 -28 68 -85 69 -129v-250l1 -80h77v-24h-257v24h79l1 80v205c-1 82 -1 147 -78 147c-36 0 -69 -15 -91 -37c-43 -44 -46 -110 -47 -161v-154l1 -80h80v-24h-264v24h83l1 80v506l-1 72
h-83v24z" />
    <glyph glyph-name="i" unicode="i" horiz-adv-x="313" 
d="M24 483h93c40 1 54 1 93 4l-1 -105v-273l1 -85h80v-24h-266v24h86l1 85v273l-1 77h-86v24zM115 600c-11 11 -17 26 -17 41c0 32 26 59 59 59c31 0 58 -27 58 -59s-27 -58 -58 -58c-16 0 -31 6 -42 17z" />
    <glyph glyph-name="j" unicode="j" horiz-adv-x="313" 
d="M23 483h97c40 1 53 1 90 4l-1 -114v-372c-1 -35 -1 -82 -45 -125c-40 -40 -110 -67 -159 -86l-10 24c27 13 49 25 72 47c37 38 42 70 44 161v351l-1 86h-87v24zM117 600c-10 11 -17 26 -17 41c0 33 26 59 59 59c32 0 58 -26 58 -59c0 -32 -26 -58 -58 -58
c-15 0 -31 6 -42 17z" />
    <glyph glyph-name="k" unicode="k" horiz-adv-x="583" 
d="M24 706h90c38 1 50 1 88 4l-1 -111v-337h61l80 137l33 60h-94v24h211v-24h-79l-38 -60l-56 -93l72 -98l69 -93l69 -91h44v-24h-249v24h78l-47 71l-103 141h-51v-124l1 -88h79v-24h-257v24h78l1 88v487l-1 83h-78v24z" />
    <glyph glyph-name="l" unicode="l" horiz-adv-x="313" 
d="M24 706h98c40 1 53 1 90 4l-1 -111v-482l1 -93h78v-24h-266v24h87l1 93v482l-1 83h-87v24z" />
    <glyph glyph-name="m" unicode="m" horiz-adv-x="938" 
d="M213 487l-2 -85c14 22 26 41 52 60c28 19 70 34 118 34c20 0 47 -3 71 -14c52 -24 62 -65 69 -96c20 37 60 108 172 108c27 0 68 -3 100 -32c39 -36 39 -84 39 -123l-3 -230l1 -85h82v-24h-261v24h79l1 85c1 64 2 128 2 193c0 82 0 153 -74 153c-39 0 -66 -17 -85 -35
c-50 -49 -52 -126 -54 -192v-119l1 -85h80v-24h-259v24h79l1 85v193c0 57 -1 80 -6 101c-4 12 -15 55 -72 55c-36 0 -67 -14 -87 -34c-44 -45 -46 -120 -48 -193v-122l1 -85h77v-24h-264v24h86l1 85v255l-1 95h-86v24h97c45 0 55 1 93 4z" />
    <glyph glyph-name="n" unicode="n" horiz-adv-x="625" 
d="M518 103l1 -79h78v-24h-258v24h79l1 79v182c-1 102 -1 132 -26 156c-16 15 -37 16 -46 16c-36 0 -63 -18 -82 -36c-53 -53 -55 -124 -57 -187v-131l1 -79h82v-24h-268v24h88l1 79v269l-1 87h-88v24h95c44 0 59 1 95 4l-1 -94c26 39 64 98 172 98c135 0 135 -104 135 -159
c0 -24 0 -49 -1 -73v-156z" />
    <glyph glyph-name="o" unicode="o" horiz-adv-x="562" 
d="M283 497c130 1 226 -103 226 -254c0 -150 -99 -252 -230 -252c-127 0 -229 99 -229 249c0 171 114 256 233 257zM280 471c-104 -2 -117 -99 -117 -234c0 -138 18 -220 116 -220c114 0 118 98 118 225c0 60 -4 98 -5 111c-5 37 -14 120 -112 118z" />
    <glyph glyph-name="p" unicode="p" horiz-adv-x="583" 
d="M200 486l-1 -76c9 17 17 31 31 45c25 25 65 40 108 40c30 0 117 -7 163 -101c16 -35 29 -84 29 -152c0 -171 -86 -251 -199 -251c-41 0 -83 10 -111 40c-8 9 -15 20 -21 30v-177l1 -78h88v-24h-274v24h86l1 78v480l-1 94h-84v24h92c41 1 53 1 92 4zM315 462
c-26 0 -53 -10 -72 -28c-29 -29 -44 -76 -44 -208c0 -64 0 -204 110 -204c103 0 111 120 111 219c0 77 0 222 -105 221z" />
    <glyph glyph-name="q" unicode="q" 
d="M385 -105v188c-18 -33 -50 -92 -150 -92s-183 69 -183 241c0 42 5 110 32 163c38 74 108 97 163 97c65 0 100 -28 116 -49c8 -11 14 -23 21 -35l-5 74h105l-1 -91v-496l1 -89h85v-24h-273v24h88zM266 460c-97 -1 -104 -106 -104 -206c0 -54 0 -115 14 -160
c5 -14 22 -72 87 -72c28 0 54 12 72 30c46 46 51 134 51 196c0 58 -1 213 -120 212z" />
    <glyph glyph-name="r" unicode="r" horiz-adv-x="437" 
d="M202 109l1 -85h85v-24h-267v24h84l1 85v267l-1 84h-84v23h92c39 1 53 1 92 5l-1 -116c25 53 58 121 138 121c66 0 90 -51 90 -94c0 -37 -15 -67 -51 -67c-15 0 -50 11 -50 52c0 7 5 38 5 45c0 29 -20 30 -26 30c-7 0 -18 -3 -35 -19c-68 -67 -71 -171 -73 -256v-75z" />
    <glyph glyph-name="s" unicode="s" horiz-adv-x="458" 
d="M57 181h28c3 -44 7 -91 47 -129c31 -29 63 -34 91 -34c72 0 112 36 112 86c0 57 -50 76 -117 99c-59 20 -148 51 -148 149c0 87 65 143 161 143c52 0 98 -16 140 -29l2 -128h-29c-7 40 -23 129 -117 129c-56 0 -88 -34 -88 -71c0 -18 7 -34 18 -45c14 -14 22 -17 100 -45
c78 -29 154 -60 154 -160c0 -91 -74 -156 -188 -156c-62 0 -114 16 -166 32v159z" />
    <glyph glyph-name="t" unicode="t" horiz-adv-x="313" 
d="M96 615h96l-2 -132h107v-28h-106l-2 -333c1 -34 1 -93 55 -93c35 0 56 25 71 59l21 -10c-22 -46 -46 -83 -129 -83c-115 0 -115 72 -115 120l3 340h-78v28h77z" />
    <glyph glyph-name="u" unicode="u" horiz-adv-x="625" 
d="M325 483h96c47 0 58 1 95 4l-1 -104v-277l1 -82h83v-24h-84c-43 -1 -60 -2 -96 -4l-5 89c-18 -27 -63 -95 -171 -95c-48 0 -90 15 -112 39c-32 32 -32 81 -32 104l1 121l-3 205h-75v24h78c46 1 62 1 98 4l-1 -104v-169c1 -96 2 -144 29 -171c11 -11 31 -20 56 -20
c28 0 60 12 85 37c47 46 48 101 49 148v175l-1 76h-90v24z" />
    <glyph glyph-name="v" unicode="v" horiz-adv-x="562" 
d="M341 483h200v-24h-73l-39 -91l-146 -377h-26l-149 377l-37 91h-72v24h278v-24h-90l24 -69l98 -259l100 260l25 68h-93v24z" />
    <glyph glyph-name="w" unicode="w" horiz-adv-x="854" 
d="M314 483h279v-24h-80l26 -84l77 -235l83 234l29 85h-88v24h195v-24h-74l-35 -94l-133 -374h-27l-146 427l-143 -427h-26l-141 377l-36 91h-73v24h265v-24h-78l26 -85l84 -234l77 235l27 84h-88v24z" />
    <glyph glyph-name="x" unicode="x" horiz-adv-x="562" 
d="M348 483h180v-24h-66l-53 -68l-87 -117l107 -178l45 -72h66v-24h-274v24h91l-33 58l-70 119l-87 -120l-40 -57h94v-24h-198v24h65l53 69l99 134l-96 158l-48 74h-73v24h283v-24h-92l34 -60l58 -100l74 99l42 61h-74v24z" />
    <glyph glyph-name="y" unicode="y" 
d="M332 483h190v-24h-76l-32 -99l-130 -414c-24 -76 -54 -164 -148 -164c-98 0 -98 77 -98 82c0 38 24 52 46 52c11 0 22 -3 29 -11c11 -11 12 -13 15 -54c1 -10 3 -36 33 -36c54 0 80 88 110 185l-152 356l-46 103h-72v24h269v-24h-84l32 -81l98 -237l73 236l24 82h-81v24z
" />
    <glyph glyph-name="z" unicode="z" horiz-adv-x="500" 
d="M59 483h397l-304 -458h124c37 1 75 2 107 37c34 36 35 86 36 124h29v-186h-430l304 458h-85c-36 -1 -86 -2 -119 -34c-31 -30 -32 -73 -33 -105h-26v164z" />
    <glyph glyph-name="braceleft" unicode="{" horiz-adv-x="354" 
d="M60 220v20c66 19 68 69 68 155v118c1 71 1 123 38 165c32 35 60 37 147 43v-14c-17 -4 -36 -9 -52 -21c-43 -31 -43 -74 -44 -145v-82c-1 -155 -1 -203 -80 -229c80 -28 80 -76 81 -208v-103c0 -40 0 -66 8 -91c17 -53 54 -64 87 -75v-13c-85 5 -120 9 -151 46
c-32 38 -33 86 -33 148v116c0 62 0 73 -4 93c-12 64 -51 76 -65 77z" />
    <glyph glyph-name="bar" unicode="|" horiz-adv-x="229" 
d="M145 750v-1000h-60v1000h60z" />
    <glyph glyph-name="braceright" unicode="}" horiz-adv-x="354" 
d="M294 240v-20c-14 -1 -53 -13 -65 -77c-4 -20 -4 -31 -4 -93v-116c0 -62 -1 -110 -33 -148c-31 -37 -66 -41 -151 -46v13c33 11 70 22 87 75c8 25 8 51 8 91v103c1 132 1 180 81 208c-79 26 -79 74 -80 229v82c-1 71 -1 114 -44 145c-16 12 -35 17 -52 21v14
c87 -6 115 -8 147 -43c37 -42 37 -94 38 -165v-118c0 -86 2 -136 68 -155z" />
    <glyph glyph-name="asciitilde" unicode="~" horiz-adv-x="729" 
d="M564 356l31 -55c-33 -42 -73 -77 -128 -77c-29 0 -52 9 -97 31l-29 14c-21 10 -53 25 -83 25c-39 0 -53 -18 -91 -65l-33 54c16 25 53 80 123 80c39 0 75 -17 113 -35l32 -15c33 -14 47 -20 65 -20c46 0 76 37 97 63z" />
    <glyph glyph-name="exclamdown" unicode="&#xa1;" horiz-adv-x="292" 
d="M112 514h30c16 -176 21 -215 41 -367c3 -22 5 -44 5 -66c0 -49 -17 -89 -63 -89c-63 0 -63 73 -63 87c0 21 3 42 6 63c24 161 28 197 44 372zM174 695c12 -12 20 -30 20 -47c0 -37 -31 -68 -68 -68c-38 0 -68 31 -68 68s30 67 68 67c18 0 35 -7 48 -20z" />
    <glyph glyph-name="cent" unicode="&#xa2;" horiz-adv-x="521" 
d="M305 589v-97c129 -10 173 -93 173 -138c0 -38 -29 -51 -53 -51c-47 0 -47 37 -47 57c0 37 -1 89 -73 105v-443c118 2 152 101 165 141l24 -8c-18 -50 -53 -150 -189 -163v-92h-36v91c-143 9 -218 123 -218 248c0 117 64 240 218 253v97h36zM269 26v439
c-9 -2 -35 -7 -57 -29c-47 -46 -50 -144 -50 -193c0 -48 4 -103 29 -150c28 -53 65 -63 78 -67z" />
    <glyph glyph-name="sterling" unicode="&#xa3;" horiz-adv-x="625" 
d="M54 391h135c-3 19 -6 39 -6 59c0 79 66 254 228 254c82 0 135 -43 135 -87c0 -29 -22 -50 -48 -50c-13 0 -34 3 -49 36c-5 10 -9 21 -15 31c-20 37 -49 38 -60 38c-15 0 -89 -8 -89 -108c0 -32 3 -46 31 -173h169v-32h-162c3 -22 7 -45 7 -67c0 -103 -64 -185 -88 -217
c36 -7 65 -12 111 -12c48 0 99 7 133 25c74 37 71 111 69 154h27c1 -16 2 -34 2 -52c0 -34 -4 -75 -23 -115c-35 -73 -103 -95 -165 -95c-101 0 -154 53 -175 74c-23 -20 -40 -34 -78 -49c-16 -5 -32 -9 -49 -9c-48 0 -70 29 -70 56c0 24 17 53 66 53c18 0 36 -4 53 -9
c23 -5 47 -10 71 -16c15 27 24 44 24 88c0 41 -1 44 -28 143c-5 16 -8 32 -12 48h-144v32z" />
    <glyph glyph-name="fraction" unicode="&#x2044;" horiz-adv-x="125" 
d="M-136 0l348 706h43l-348 -706h-43z" />
    <glyph glyph-name="yen" unicode="&#xa5;" horiz-adv-x="625" 
d="M505 588l-85 -168h131v-32h-148l-25 -50v-47h173v-32h-173v-144l1 -91h92v-24h-297v24h92l1 92v143h-177v32h177v47l-28 50h-149v32h130l-96 168l-46 77h-78v24h316v-24h-104l37 -72l118 -215l109 214l35 73h-101v24h214v-24h-78z" />
    <glyph glyph-name="florin" unicode="&#x192;" horiz-adv-x="437" 
d="M68 479h94c8 31 23 94 58 147c29 43 73 74 124 74c60 0 113 -41 113 -93c0 -27 -19 -49 -44 -49c-24 0 -52 18 -52 50c0 18 15 33 15 44c0 8 -8 24 -32 24c-61 0 -72 -78 -86 -197h103l-4 -25h-101c-8 -92 -25 -303 -84 -445c-50 -120 -123 -189 -202 -189
c-51 0 -99 38 -99 92c0 30 18 53 45 53c28 0 50 -24 50 -46c0 -14 -8 -25 -8 -39c0 -18 17 -29 34 -29c14 0 33 7 48 18c42 32 56 99 64 135c14 73 24 175 33 264c9 97 10 107 21 186h-94z" />
    <glyph glyph-name="section" unicode="&#xa7;" horiz-adv-x="500" 
d="M265 103l-61 48c-60 48 -160 128 -160 299c0 137 72 266 230 267c127 0 169 -87 169 -128c0 -37 -23 -57 -50 -57c-28 0 -50 20 -50 56c0 7 7 41 7 49c0 41 -48 49 -75 49c-74 0 -122 -48 -122 -110c0 -69 54 -116 140 -182c25 -20 51 -40 74 -63c67 -70 99 -165 99 -262
c0 -146 -80 -283 -241 -283c-105 0 -184 62 -184 143c0 61 46 61 53 61c27 0 49 -17 49 -61c0 -15 -3 -29 -3 -44c0 -22 7 -35 15 -44c11 -11 37 -25 76 -25c84 0 141 58 141 131c0 72 -54 115 -107 156zM112 533v2c1 25 6 48 11 72c-4 -8 -9 -17 -13 -25
c-15 -31 -24 -79 -24 -116c0 -118 59 -165 187 -265c70 -55 133 -108 133 -220c0 -14 -1 -28 -2 -42c11 34 19 59 19 103c0 64 -17 121 -46 163c-26 38 -49 57 -146 134c-43 34 -119 94 -119 194z" />
    <glyph glyph-name="currency" unicode="&#xa4;" horiz-adv-x="667" 
d="M610 569l-74 -73c19 -26 54 -71 54 -156c0 -86 -36 -133 -55 -158l74 -74l-46 -46l-73 75c-26 -19 -72 -54 -156 -54c-86 0 -133 35 -158 54l-74 -73l-45 45l75 73c-20 26 -55 73 -55 157s35 132 54 157l-72 73l45 45l72 -73c25 19 74 55 158 55s131 -35 157 -54l73 73z
M529 340c1 116 -90 197 -196 197c-108 0 -196 -83 -196 -197c0 -113 88 -198 198 -198c108 0 193 83 194 198z" />
    <glyph glyph-name="quotesingle" unicode="'" horiz-adv-x="208" 
d="M148 700l-35 -255h-19l-33 242c-1 8 -1 12 -1 17c0 32 25 45 46 45c6 0 45 0 42 -49z" />
    <glyph glyph-name="quotedblleft" unicode="&#x201c;" horiz-adv-x="458" 
d="M401 716l12 -21c-16 -12 -36 -26 -52 -43c-32 -32 -58 -78 -58 -116c0 -7 1 -14 2 -21c11 9 23 19 45 19c34 0 63 -24 63 -63s-30 -69 -70 -69c-49 0 -85 43 -85 109c0 30 9 91 71 153c27 27 46 38 72 52zM193 716l13 -21c-17 -12 -36 -26 -53 -43
c-31 -32 -57 -78 -57 -116c0 -7 0 -14 1 -21c12 9 24 19 46 19c34 0 62 -24 62 -63s-30 -69 -70 -69c-48 0 -84 43 -84 109c0 30 8 91 70 153c27 27 47 38 72 52z" />
    <glyph glyph-name="guillemotleft" unicode="&#xab;" horiz-adv-x="417" 
d="M234 115l-20 -20l-175 155v34l165 151l22 -19l-92 -153zM386 116l-21 -19l-174 153v33l166 151l19 -17l-91 -152z" />
    <glyph glyph-name="guilsinglleft" unicode="&#x2039;" horiz-adv-x="271" 
d="M233 115l-21 -20l-174 155v34l164 151l22 -19l-91 -153z" />
    <glyph glyph-name="guilsinglright" unicode="&#x203a;" horiz-adv-x="271" 
d="M38 415l21 20l174 -155v-33l-165 -152l-21 20l91 153z" />
    <glyph glyph-name="fi" unicode="&#xfb01;" horiz-adv-x="625" 
d="M199 571v-88h97v-28h-97v-352l1 -79h83v-24h-266v24h84l1 79v352h-85v28h85v92c2 34 3 68 31 96c22 23 61 41 127 41c25 0 48 -2 70 -9c42 -12 74 -40 74 -83c0 -36 -23 -43 -47 -43c-43 0 -43 30 -43 50c0 17 0 60 -52 60c-63 0 -63 -47 -63 -116zM337 483h93
c39 1 54 1 93 4l-1 -105v-273l1 -85h80v-24h-266v24h86l1 85v273l-1 77h-86v24zM428 600c-11 11 -17 26 -17 42c0 31 26 58 58 58s59 -27 59 -58c0 -33 -27 -59 -59 -59c-15 0 -30 6 -41 17z" />
    <glyph glyph-name="fl" unicode="&#xfb02;" horiz-adv-x="625" 
d="M198 571v-88h98v-28h-98v-352l1 -79h83v-24h-266v24h84l1 79v352h-85v28h85v92c2 34 3 68 31 96c29 30 80 41 116 41c60 0 131 -29 131 -94c0 -28 -12 -41 -45 -41c-44 0 -44 31 -44 48c0 10 0 62 -41 62c-4 0 -18 0 -32 -15c-19 -21 -19 -46 -19 -101zM360 706h74
c40 1 53 1 90 4l-1 -111v-482l1 -93h78v-24h-265v24h86l1 93v482l-1 83h-63v24z" />
    <glyph glyph-name="endash" unicode="&#x2013;" 
d="M44 293h453v-57h-453v57z" />
    <glyph glyph-name="dagger" unicode="&#x2020;" horiz-adv-x="458" 
d="M246 445c20 4 41 7 61 12c18 5 36 11 54 16c9 2 18 4 27 4c32 0 50 -18 50 -45c0 -23 -14 -49 -53 -49c-23 0 -44 11 -66 18c-24 7 -48 10 -73 13c5 -82 6 -87 21 -200c4 -36 25 -196 25 -251c0 -25 0 -106 -63 -106c-48 0 -60 48 -60 98c0 64 3 87 26 256
c12 92 15 132 19 203c-25 -4 -50 -8 -75 -16c-20 -6 -40 -16 -62 -16c-38 0 -56 23 -56 49c0 25 16 46 51 46c13 0 26 -4 39 -8c46 -15 53 -16 103 -24c-10 62 -12 71 -33 154c-3 16 -7 32 -7 48c0 51 27 69 55 69c7 0 57 0 57 -69c0 -16 -3 -31 -7 -46
c-4 -18 -9 -35 -14 -53c-8 -34 -14 -68 -19 -103z" />
    <glyph glyph-name="daggerdbl" unicode="&#x2021;" horiz-adv-x="458" 
d="M174 -76v2c0 13 35 233 39 261c-20 -4 -40 -7 -60 -12c-18 -5 -36 -11 -55 -16c-8 -2 -17 -4 -27 -4c-34 0 -50 20 -50 45c0 23 14 49 53 49c24 0 45 -11 67 -17c24 -8 48 -11 72 -14c-1 11 -4 24 -10 43c-13 38 -14 42 -14 53c0 8 0 18 16 65c6 18 7 21 9 35
c-25 -4 -50 -8 -75 -16c-20 -6 -40 -16 -62 -16c-39 0 -56 24 -56 49s16 46 51 46c13 0 26 -4 39 -8c45 -14 52 -16 103 -24c-10 63 -12 72 -33 154c-3 16 -7 32 -7 49c0 46 24 68 55 68c7 0 57 0 57 -69c0 -16 -3 -31 -7 -46c-4 -18 -9 -35 -14 -53
c-8 -34 -14 -68 -19 -103c20 4 41 7 61 12c18 5 36 11 54 16c9 2 18 4 27 4c34 0 51 -20 51 -45c0 -24 -16 -49 -54 -49c-23 0 -44 11 -66 17c-24 8 -48 11 -73 14c2 -14 3 -17 10 -38c0 -1 14 -42 14 -61c0 -15 -5 -29 -14 -56c-7 -21 -8 -27 -11 -41c26 4 51 8 75 16
c21 6 40 16 63 16c38 0 55 -24 55 -49s-16 -46 -50 -46c-14 0 -27 4 -39 8c-46 14 -53 16 -103 24l21 -147c4 -22 7 -45 11 -67c6 -27 8 -35 8 -49c0 -47 -27 -67 -56 -67c-5 0 -56 0 -56 67z" />
    <glyph glyph-name="periodcentered" unicode="&#xb7;" horiz-adv-x="250" 
d="M77 217c-13 12 -20 30 -20 48c0 37 31 68 68 68s67 -31 67 -68c0 -38 -30 -68 -67 -68c-18 0 -36 8 -48 20z" />
    <glyph glyph-name="paragraph" unicode="&#xb6;" horiz-adv-x="667" 
d="M310 706h222v-44h-34v-829h-46v829h-157v-829h-46v497c-26 4 -56 8 -92 35c-45 34 -67 90 -67 147c0 71 30 117 61 144c54 48 118 49 159 50z" />
    <glyph glyph-name="bullet" unicode="&#x2022;" horiz-adv-x="333" 
d="M286 353c0 -65 -47 -119 -117 -119c-71 0 -122 54 -122 119c0 60 48 119 121 119c68 0 118 -53 118 -119z" />
    <glyph glyph-name="quotesinglbase" unicode="&#x201a;" horiz-adv-x="250" 
d="M56 -195l-13 21c18 14 36 27 53 44c29 30 57 77 57 116c0 7 -1 14 -1 21c-12 -9 -24 -19 -46 -19c-34 0 -63 24 -63 62c0 39 30 69 70 69c49 0 85 -42 85 -108c0 -23 -4 -86 -71 -153c-27 -28 -47 -39 -71 -53z" />
    <glyph glyph-name="quotedblbase" unicode="&#x201e;" horiz-adv-x="458" 
d="M263 -195l-13 21c17 13 36 27 53 44c31 31 58 78 58 116c0 7 -1 14 -2 21c-11 -9 -23 -19 -46 -19c-33 0 -62 24 -62 62c0 39 30 69 70 69c49 0 85 -43 85 -108c0 -30 -9 -91 -71 -153c-27 -28 -47 -38 -72 -53zM56 -195l-13 21c16 13 36 27 53 44c31 31 57 78 57 116
c0 7 -1 14 -1 21c-12 -9 -24 -19 -46 -19c-34 0 -63 24 -63 62c0 39 30 69 70 69c49 0 85 -43 85 -108c0 -30 -8 -91 -71 -153c-27 -28 -46 -38 -71 -53z" />
    <glyph glyph-name="quotedblright" unicode="&#x201d;" horiz-adv-x="458" 
d="M263 400l-13 21c17 12 36 26 53 43c31 32 58 78 58 116c0 7 -1 14 -2 21c-11 -9 -24 -19 -46 -19c-34 0 -62 24 -62 63s30 69 70 69c49 0 85 -43 85 -108c0 -31 -9 -92 -71 -154c-27 -27 -47 -38 -72 -52zM56 400l-13 21c16 12 36 26 53 43c31 32 57 78 57 116
c0 7 -1 14 -1 21c-12 -9 -24 -19 -46 -19c-34 0 -63 24 -63 63s30 69 70 69c49 0 85 -43 85 -108c0 -31 -9 -92 -71 -154c-27 -27 -46 -38 -71 -52z" />
    <glyph glyph-name="guillemotright" unicode="&#xbb;" horiz-adv-x="417" 
d="M180 415l20 20l175 -155v-33l-165 -152l-22 20l92 153zM28 414l21 20l174 -153v-33l-166 -151l-19 16l91 152z" />
    <glyph glyph-name="ellipsis" unicode="&#x2026;" horiz-adv-x="1000" 
d="M119 11c-13 12 -20 30 -20 48c0 37 31 68 68 68s67 -32 67 -68c0 -38 -30 -68 -67 -68c-18 0 -36 8 -48 20zM452 11c-13 12 -20 30 -20 48c0 37 31 68 68 68s67 -32 67 -68c0 -38 -30 -68 -67 -68c-18 0 -36 8 -48 20zM785 11c-13 12 -20 30 -20 48c0 37 31 68 68 68
s67 -32 67 -68c0 -38 -30 -68 -67 -68c-18 0 -36 8 -48 20z" />
    <glyph glyph-name="perthousand" unicode="&#x2030;" horiz-adv-x="1188" 
d="M221 0l340 688h49l-340 -688h-49zM176 696c83 1 156 -81 156 -230c0 -144 -68 -225 -154 -225c-98 0 -156 108 -156 230c0 138 70 224 154 225zM176 670c-24 0 -41 -15 -50 -37c-15 -37 -17 -123 -17 -166c0 -25 1 -124 18 -163c16 -37 43 -37 51 -37c35 0 46 28 50 37
c14 38 16 120 16 164c0 21 -1 123 -18 164c-16 38 -46 38 -50 38zM655 448c83 1 156 -81 156 -230c0 -143 -67 -225 -154 -225c-100 0 -157 109 -157 230c0 138 70 224 155 225zM654 422c-24 0 -41 -15 -50 -37c-15 -37 -17 -123 -17 -166c0 -25 1 -124 18 -163
c16 -37 44 -37 51 -37c36 0 47 28 51 37c14 38 16 120 16 164c0 21 -1 123 -18 164c-16 38 -46 38 -51 38zM1012 448c55 0 154 -47 154 -223c0 -140 -64 -233 -155 -233c-80 0 -156 76 -156 227c0 160 82 229 157 229zM1010 420c-44 -1 -55 -50 -59 -70
c-9 -41 -11 -107 -11 -141c0 -139 22 -188 70 -188c44 0 57 45 62 84c6 39 8 95 8 129c0 127 -19 187 -70 186z" />
    <glyph glyph-name="questiondown" unicode="&#xbf;" horiz-adv-x="437" 
d="M237 458v64h32v-75c0 -37 -2 -61 -49 -89l-30 -17c-42 -26 -58 -47 -58 -167c0 -66 4 -155 82 -155c57 0 59 40 59 47c0 8 -2 15 -5 21c-3 7 -7 14 -10 21s-5 15 -5 23c0 33 22 55 53 55s58 -24 58 -67c0 -55 -55 -128 -159 -128c-139 0 -177 120 -177 195
c0 35 7 67 20 94c27 54 69 74 123 98c56 25 65 30 66 80zM295 695c13 -13 21 -30 20 -48c0 -37 -30 -68 -67 -68c-38 0 -68 31 -68 68s30 68 68 68c17 0 35 -8 47 -20z" />
    <glyph glyph-name="grave" unicode="`" horiz-adv-x="271" 
d="M169 665l52 -140h-27l-122 117c-10 9 -23 21 -23 36c0 25 22 27 36 28h44c25 -2 29 -10 40 -41z" />
    <glyph glyph-name="acute" unicode="&#xb4;" horiz-adv-x="271" 
d="M198 646l-119 -121h-29l51 145c10 27 18 35 44 36h45c13 0 31 -2 31 -23c0 -13 -11 -25 -23 -37z" />
    <glyph glyph-name="circumflex" unicode="&#x2c6;" horiz-adv-x="271" 
d="M24 523l100 183h17l106 -183h-78l-57 104l-53 -104h-35z" />
    <glyph glyph-name="tilde" unicode="&#x2dc;" horiz-adv-x="271" 
d="M2 552l-26 12c24 59 45 109 96 109c10 0 19 -2 28 -5c25 -7 48 -20 72 -30c11 -5 25 -11 39 -11c30 0 44 25 59 51l25 -13c-30 -72 -51 -110 -99 -110c-13 0 -26 2 -41 8c-23 7 -45 19 -68 27c-8 3 -21 8 -34 8c-28 0 -40 -22 -51 -46z" />
    <glyph glyph-name="macron" unicode="&#xaf;" horiz-adv-x="271" 
d="M-20 634h312v-39h-312v39z" />
    <glyph glyph-name="breve" unicode="&#x2d8;" horiz-adv-x="271" 
d="M225 677h31c-2 -61 -31 -136 -120 -136c-86 0 -120 77 -122 136h33c9 -26 27 -62 89 -62c45 0 73 20 89 62z" />
    <glyph glyph-name="dotaccent" unicode="&#x2d9;" horiz-adv-x="271" 
d="M98 579c-10 10 -16 24 -16 38c0 31 25 54 53 54c31 0 54 -25 54 -54s-23 -54 -54 -54c-14 0 -28 6 -37 16z" />
    <glyph glyph-name="dieresis" unicode="&#xa8;" horiz-adv-x="271" 
d="M193 579c-10 10 -15 24 -15 38c0 31 24 54 53 54c30 0 54 -25 54 -54s-24 -54 -54 -54c-14 0 -28 6 -38 16zM2 579c-10 10 -16 24 -16 38c0 31 25 54 54 54c30 0 54 -25 54 -54c-1 -29 -24 -54 -54 -54c-14 0 -28 6 -38 16z" />
    <glyph glyph-name="ring" unicode="&#x2da;" horiz-adv-x="271" 
d="M73 557c-16 16 -26 39 -26 63c0 48 40 88 88 88c49 0 89 -40 89 -88c0 -49 -40 -89 -89 -89c-23 0 -46 10 -62 26zM95 579c10 -11 25 -17 40 -17c32 0 58 26 58 58c0 31 -26 57 -58 57s-57 -25 -57 -57c0 -16 6 -30 17 -41z" />
    <glyph glyph-name="cedilla" unicode="&#xb8;" horiz-adv-x="271" 
d="M44 -123v79c26 10 51 20 81 20c73 0 107 -46 107 -91c0 -50 -43 -92 -104 -92c-39 0 -64 16 -90 32l16 21c17 -12 35 -24 60 -24c55 0 55 52 55 66c0 11 0 62 -47 62c-49 0 -52 -51 -53 -73h-25z" />
    <glyph glyph-name="hungarumlaut" unicode="&#x2dd;" horiz-adv-x="271" 
d="M128 646l-119 -122h-29l51 145c10 27 17 36 44 37h45c12 -1 31 -2 31 -24c0 -12 -12 -24 -23 -36zM269 646l-119 -122h-29l51 145c10 28 18 36 44 37h45c13 -1 31 -2 31 -24c0 -12 -11 -24 -23 -36z" />
    <glyph glyph-name="ogonek" unicode="&#x2db;" horiz-adv-x="271" 
d="M120 8h40c-17 -18 -40 -42 -40 -73c0 -6 0 -52 58 -52c14 0 27 2 33 4l6 -21c-12 -6 -47 -23 -84 -23c-56 0 -79 37 -79 66c0 39 34 70 66 99z" />
    <glyph glyph-name="caron" unicode="&#x2c7;" horiz-adv-x="271" 
d="M247 706l-100 -183h-17l-106 183h79l56 -103l53 103h35z" />
    <glyph glyph-name="emdash" unicode="&#x2014;" horiz-adv-x="625" 
d="M44 236v57h537v-57h-537z" />
    <glyph glyph-name="AE" unicode="&#xc6;" horiz-adv-x="1042" 
d="M350 706h591l8 -222h-28c-5 45 -13 107 -56 151c-36 37 -75 41 -164 41h-115l-1 -78v-222h63c74 3 110 21 113 119v30h27v-336h-27v39c-3 87 -18 118 -115 120h-61v-241l1 -81h167c44 2 89 4 133 47c57 56 64 123 68 169h29l-8 -242h-593v24h93l1 83v148h-219l-75 -153
l-37 -78h103v-24h-223v24h78l45 83l249 494l39 81h-86v24zM476 284v314l-1 87l-202 -401h203z" />
    <glyph glyph-name="ordfeminine" unicode="&#xaa;" horiz-adv-x="354" 
d="M316 417h20v-25h-50c-21 0 -56 0 -70 34l-2 4c-23 -31 -56 -44 -97 -44c-9 0 -41 0 -62 22c-12 11 -25 34 -25 74c0 74 46 83 114 97c36 8 49 13 71 21v18c-1 44 -1 70 -45 70s-45 -24 -46 -46c-1 -12 -2 -36 -35 -36c-14 0 -36 1 -36 31c0 62 71 75 118 75
c114 0 115 -60 115 -101v-138c-1 -49 6 -56 30 -56zM215 526v47c-59 -18 -65 -20 -72 -23c-35 -16 -35 -53 -35 -71c0 -19 0 -62 38 -62c19 0 32 10 41 18c26 26 27 58 28 91z" />
    <glyph glyph-name="Lslash" unicode="&#x141;" horiz-adv-x="667" 
d="M232 585v-192l187 161v-46l-187 -162v-228l1 -89h165c45 2 91 4 132 45c48 49 60 128 69 185h27v-259h-597v24h91l1 94v133l-91 -79v46l91 79v288l-1 97h-91v24h295v-24h-91z" />
    <glyph glyph-name="Oslash" unicode="&#xd8;" horiz-adv-x="771" 
d="M616 622l84 92l24 -22l-87 -95c21 -28 35 -49 49 -90c15 -45 22 -97 22 -147c0 -169 -89 -370 -324 -370c-130 0 -195 61 -223 87l-77 -83l-24 20l79 87c-29 37 -82 107 -82 243c0 68 15 147 47 210c67 130 196 161 282 161c138 0 205 -67 230 -93zM201 168l359 392
c-10 29 -20 56 -44 79c-28 29 -74 48 -130 48c-153 0 -178 -123 -184 -156c-14 -64 -15 -160 -15 -196c0 -85 7 -125 14 -167zM568 522l-357 -389c8 -19 15 -37 36 -59c29 -30 76 -56 139 -56c56 0 99 21 125 47c48 48 68 130 68 284c0 92 -7 145 -11 173z" />
    <glyph glyph-name="OE" unicode="&#x152;" horiz-adv-x="1104" 
d="M535 231v295c-3 51 -5 88 -35 120c-37 39 -94 40 -113 40c-48 0 -96 -13 -131 -46c-42 -40 -69 -104 -69 -298c0 -35 1 -69 4 -104c4 -42 12 -87 30 -122c36 -70 106 -96 170 -96c19 0 74 3 107 36c32 32 37 81 37 175zM502 706h500l7 -224h-26c-7 52 -15 110 -58 153
c-40 40 -87 41 -144 41h-141l-1 -83v-217h69c73 3 109 21 112 119v30h27v-336h-27v39c-3 88 -18 118 -115 120h-66v-241l1 -81h172c44 2 89 4 134 47c57 56 64 123 68 169h29l-8 -242h-467c-53 -1 -60 -1 -122 -6c-19 -2 -38 -3 -57 -3c-212 0 -332 162 -332 354
c0 194 100 369 333 369c18 0 36 -1 55 -3c34 -4 38 -5 57 -5z" />
    <glyph glyph-name="ordmasculine" unicode="&#xba;" horiz-adv-x="354" 
d="M179 712c85 1 146 -68 146 -165s-65 -163 -149 -163c-83 0 -149 65 -149 161c0 111 73 166 152 167zM176 686c-59 -1 -69 -53 -69 -142c0 -92 14 -134 70 -134c66 0 69 55 69 136c0 102 -12 141 -70 140z" />
    <glyph glyph-name="ae" unicode="&#xe6;" horiz-adv-x="812" 
d="M336 317v40c-1 55 -4 113 -83 113c-69 0 -74 -45 -75 -70c-2 -35 -3 -60 -50 -60c-19 0 -48 0 -48 39c0 94 104 115 176 115c29 0 57 -3 84 -13c36 -13 46 -28 59 -48c22 23 59 62 150 62c79 0 127 -34 154 -60c54 -56 57 -118 60 -161h-329c1 -99 3 -171 52 -218
c13 -12 43 -36 95 -36c106 0 145 97 157 127l25 -8c-21 -50 -62 -150 -210 -150c-36 0 -83 7 -120 25c-59 30 -75 69 -84 92c-24 -49 -55 -116 -173 -116c-22 0 -66 1 -97 33c-19 20 -36 57 -36 109c0 113 71 128 183 153c46 10 67 17 110 32zM436 302h211
c-1 50 -4 167 -101 167c-30 0 -53 -14 -66 -28c-35 -35 -40 -95 -44 -139zM336 230v60c-29 -10 -34 -11 -79 -24c-58 -16 -105 -34 -105 -138c0 -24 0 -104 68 -104c33 0 54 19 65 30c45 45 49 99 51 176z" />
    <glyph glyph-name="dotlessi" unicode="&#x131;" horiz-adv-x="313" 
d="M24 483h93c40 1 54 1 93 4l-1 -105v-273l1 -85h80v-24h-266v24h86l1 85v273l-1 77h-86v24z" />
    <glyph glyph-name="lslash" unicode="&#x142;" horiz-adv-x="313" 
d="M211 599v-186l81 72v-45l-81 -71v-252l1 -93h78v-24h-266v24h87l1 93v166l-93 -81v44l93 81v272l-1 83h-87v24h98c40 1 53 1 90 4z" />
    <glyph glyph-name="oslash" unicode="&#xf8;" horiz-adv-x="562" 
d="M433 434l54 59l24 -20l-57 -61c23 -35 53 -77 53 -168c0 -166 -111 -254 -228 -254c-25 0 -49 4 -73 12c-42 13 -61 30 -80 48l-53 -58l-23 21l54 58c-18 25 -54 74 -54 170c0 170 117 254 234 254c87 0 130 -42 149 -61zM166 139l220 243c-11 38 -26 87 -106 87
c-107 0 -117 -112 -117 -221c0 -38 2 -76 3 -109zM392 344l-219 -244c12 -37 29 -83 108 -83c101 0 115 82 115 223c0 39 -1 61 -4 104z" />
    <glyph glyph-name="oe" unicode="&#x153;" horiz-adv-x="854" 
d="M802 148l26 -9c-23 -53 -63 -149 -209 -149c-115 0 -151 53 -171 83c-15 -22 -27 -38 -56 -54c-33 -19 -71 -28 -110 -28c-131 0 -231 101 -231 247c0 171 119 257 239 257c31 0 63 -6 92 -20c38 -18 50 -37 66 -62c15 22 27 39 59 57c34 18 71 26 108 26
c50 0 105 -14 152 -60c53 -53 58 -114 62 -162h-330c0 -56 1 -107 15 -151c6 -21 32 -102 130 -102c20 0 42 3 63 13c60 27 83 84 95 114zM283 470c-103 0 -113 -110 -113 -238c0 -126 13 -219 111 -219c111 0 111 123 111 221c0 144 -8 236 -109 236zM500 302h211
c-1 54 -4 167 -101 167c-23 0 -47 -7 -65 -25c-36 -35 -41 -97 -45 -142z" />
    <glyph glyph-name="germandbls" unicode="&#xdf;" horiz-adv-x="583" 
d="M97 107v433c3 76 6 176 212 176c25 0 106 0 153 -46c23 -24 37 -60 37 -94c0 -43 -20 -82 -60 -98c-19 -7 -39 -9 -59 -11c18 -3 36 -7 54 -14c82 -34 93 -131 93 -217c0 -50 -3 -151 -59 -205c-27 -26 -65 -40 -103 -40c-34 0 -59 12 -73 26c-28 28 -27 68 -27 140h25
c0 -70 -1 -132 62 -132c53 0 59 52 62 81c5 48 5 99 5 148c0 139 -18 185 -77 198c-15 4 -53 3 -53 3v29c69 0 114 0 114 87c0 26 0 119 -103 119c-36 0 -61 -13 -74 -26c-30 -30 -30 -78 -31 -174v-383l1 -83h67v-24h-241v24h74z" />
    <glyph glyph-name="brokenbar" unicode="&#xa6;" horiz-adv-x="229" 
d="M85 -175v350h60v-350h-60zM145 325h-60v350h60v-350z" />
    <glyph glyph-name="Ograve" unicode="&#xd2;" horiz-adv-x="771" 
d="M381 716c208 2 329 -149 329 -349c0 -168 -82 -378 -326 -378c-44 0 -86 7 -125 22c-65 27 -122 81 -155 141c-30 54 -46 126 -46 199c0 227 130 363 323 365zM389 688c-71 0 -114 -28 -134 -48c-38 -38 -68 -100 -68 -290c0 -49 2 -93 7 -136c4 -30 9 -60 21 -88
c36 -84 114 -108 170 -108c55 0 100 21 128 49c57 57 67 156 67 278c0 42 -1 85 -5 128c-5 60 -18 214 -186 215zM438 757h-32l-97 82c-15 13 -25 23 -25 33c0 19 18 20 27 21h55c19 -2 23 -8 33 -35z" />
    <glyph glyph-name="Ccedilla" unicode="&#xc7;" horiz-adv-x="708" 
d="M635 254v-197c-55 -29 -134 -70 -246 -70c-189 0 -331 130 -331 363c0 226 134 366 344 366c105 0 180 -32 233 -55v-186h-30c-2 35 -5 67 -25 107c-17 33 -64 105 -174 105c-60 0 -113 -22 -148 -55c-59 -56 -72 -150 -72 -274c0 -141 18 -231 70 -285
c30 -32 80 -56 141 -56c85 0 145 47 181 121c23 48 25 80 27 116h30zM298 -117v79c25 10 51 20 81 20c73 0 107 -46 107 -91c0 -50 -41 -92 -106 -92c-40 0 -60 15 -82 32l10 21c17 -11 35 -24 60 -24c55 0 55 52 55 66c0 11 0 62 -47 62c-49 0 -52 -51 -53 -73h-25z" />
    <glyph glyph-name="multiply" unicode="&#xd7;" horiz-adv-x="667" 
d="M582 83l-41 -41l-208 207l-207 -207l-42 41l207 208l-207 206l42 42l207 -207l208 207l41 -42l-207 -206z" />
    <glyph glyph-name="Ntilde" unicode="&#xd1;" horiz-adv-x="750" 
d="M26 706h226l346 -503v387l-1 92h-104v24h223v-24h-86l-1 -92v-599l-16 -5l-464 675v-542l1 -95h107v-24h-231v24h92l1 95v471l-1 92h-92v24zM221 760l-25 13c38 77 58 114 106 114c16 0 33 -5 49 -11c20 -8 40 -17 61 -25c14 -6 28 -11 43 -11c32 0 44 23 57 49l27 -11
c-30 -67 -54 -113 -106 -113c-16 0 -31 5 -44 9c-26 10 -51 23 -77 31c-11 3 -22 6 -33 6c-30 0 -40 -18 -58 -51z" />
    <glyph glyph-name="Otilde" unicode="&#xd5;" horiz-adv-x="771" 
d="M381 716c208 2 329 -149 329 -349c0 -168 -82 -378 -326 -378c-44 0 -86 7 -125 22c-65 27 -122 81 -155 141c-30 54 -46 126 -46 199c0 227 130 363 323 365zM389 688c-71 0 -114 -28 -134 -48c-38 -38 -68 -100 -68 -290c0 -49 2 -93 7 -136c4 -30 9 -60 21 -88
c36 -84 114 -108 170 -108c55 0 100 21 128 49c57 57 67 156 67 278c0 42 -1 85 -5 128c-5 60 -18 214 -186 215zM231 760l-25 13c38 77 58 114 106 114c16 0 33 -5 49 -11c20 -8 40 -17 61 -25c14 -6 28 -11 43 -11c32 0 44 23 57 49l27 -11c-30 -67 -54 -113 -106 -113
c-16 0 -31 5 -44 9c-26 10 -51 23 -77 31c-11 3 -22 6 -33 6c-30 0 -40 -18 -58 -51z" />
    <glyph glyph-name="mu" unicode="&#xb5;" horiz-adv-x="625" 
d="M419 -4l-5 89c-10 -15 -18 -27 -33 -43c-37 -35 -82 -53 -124 -53c-31 0 -45 9 -58 17v-122l1 -78h88v-24h-274v24h86l1 78v498l-5 77h-74v24h78c46 1 62 1 98 4l-1 -105v-169c1 -96 3 -144 29 -170c11 -11 30 -21 56 -21c28 0 60 12 85 37c47 46 48 101 49 148v175
l-1 77h-90v24h96c47 0 58 1 95 4l-1 -105v-277l1 -81h83v-24h-84c-43 -1 -60 -2 -96 -4z" />
    <glyph glyph-name="Oacute" unicode="&#xd3;" horiz-adv-x="771" 
d="M381 716c208 2 329 -149 329 -349c0 -168 -82 -378 -326 -378c-44 0 -86 7 -125 22c-65 27 -122 81 -155 141c-30 54 -46 126 -46 199c0 227 130 363 323 365zM389 688c-71 0 -114 -28 -134 -48c-38 -38 -68 -100 -68 -290c0 -49 2 -93 7 -136c4 -30 9 -60 21 -88
c36 -84 114 -108 170 -108c55 0 100 21 128 49c57 57 67 156 67 278c0 42 -1 85 -5 128c-5 60 -18 214 -186 215zM463 839l-97 -82h-32l39 101c10 27 14 33 33 35h55c9 -1 27 -2 27 -21c0 -10 -10 -20 -25 -33z" />
    <glyph glyph-name="thorn" unicode="&#xfe;" horiz-adv-x="583" 
d="M200 610v-198l6 12c12 18 43 71 132 71c28 0 117 -6 163 -101c15 -32 29 -80 29 -152c0 -171 -86 -251 -199 -251c-89 0 -115 43 -132 70v-177l2 -78h87v-24h-273v24h85l1 78v726l-2 74h-82v22h89c42 1 56 1 95 4zM315 462c-26 0 -53 -10 -72 -28
c-29 -29 -44 -77 -44 -208c0 -64 0 -204 110 -204c103 0 111 121 111 218c0 78 0 223 -105 222z" />
    <glyph glyph-name="eth" unicode="&#xf0;" horiz-adv-x="562" 
d="M488 646l-88 -28c81 -91 108 -214 108 -336c0 -47 -5 -94 -20 -138c-21 -58 -78 -153 -209 -153c-127 0 -229 99 -229 249c0 181 125 258 234 258c46 0 76 -14 95 -23c-4 22 -13 68 -44 122l-149 -49l-12 31l143 46c-24 33 -43 51 -80 74l15 25c24 -12 71 -33 122 -80
l102 33zM280 472c-104 -2 -117 -99 -117 -235c0 -137 18 -220 117 -220c114 0 117 98 117 226c0 58 -3 95 -5 111c-4 37 -13 120 -112 118z" />
    <glyph glyph-name="Igrave" unicode="&#xcc;" horiz-adv-x="354" 
d="M30 706h296v-24h-92l-1 -93v-467l1 -98h92v-24h-296v24h91l1 98v467l-1 93h-91v24zM230 757h-32l-97 82c-15 13 -25 23 -25 33c0 19 18 20 27 21h55c19 -2 23 -8 33 -35z" />
    <glyph glyph-name="Ocircumflex" unicode="&#xd4;" horiz-adv-x="771" 
d="M381 716c208 2 329 -149 329 -349c0 -168 -82 -378 -326 -378c-44 0 -86 7 -125 22c-65 27 -122 81 -155 141c-30 54 -46 126 -46 199c0 227 130 363 323 365zM389 688c-71 0 -114 -28 -134 -48c-38 -38 -68 -100 -68 -290c0 -49 2 -93 7 -136c4 -30 9 -60 21 -88
c36 -84 114 -108 170 -108c55 0 100 21 128 49c57 57 67 156 67 278c0 42 -1 85 -5 128c-5 60 -18 214 -186 215zM263 756l108 137h38l117 -137h-87l-68 85l-64 -85h-44z" />
    <glyph glyph-name="Eacute" unicode="&#xc9;" horiz-adv-x="688" 
d="M28 706h561l7 -220h-26c-8 54 -17 108 -58 149c-40 40 -87 41 -145 41h-135l-1 -78v-222h63c74 3 110 21 113 119v30h27v-336h-27v39c-3 88 -18 118 -115 120h-61v-241l1 -81h167c44 2 89 4 133 47c57 56 64 123 68 169h29l-8 -242h-593v24h93l1 84v490l-1 84h-93v24z
M422 839l-97 -82h-32l39 101c10 27 14 33 33 35h55c9 -1 27 -2 27 -21c0 -10 -10 -20 -25 -33z" />
    <glyph glyph-name="Edieresis" unicode="&#xcb;" horiz-adv-x="688" 
d="M28 706h561l7 -220h-26c-8 54 -17 108 -58 149c-40 40 -87 41 -145 41h-135l-1 -78v-222h63c74 3 110 21 113 119v30h27v-336h-27v39c-3 88 -18 118 -115 120h-61v-241l1 -81h167c44 2 89 4 133 47c57 56 64 123 68 169h29l-8 -242h-593v24h93l1 84v490l-1 84h-93v24z
M419 780c-11 11 -18 27 -18 43c0 33 28 60 60 60c34 0 61 -27 61 -60s-27 -61 -61 -61c-15 0 -31 7 -42 18zM184 780c-11 11 -18 27 -18 43c0 33 28 60 60 60c34 0 61 -27 61 -60s-27 -61 -61 -61c-15 0 -31 7 -42 18z" />
    <glyph glyph-name="Aacute" unicode="&#xc1;" horiz-adv-x="708" 
d="M140 111l201 603h20l198 -601l31 -89h90v-24h-319v24h103l-23 84l-43 138h-182l-46 -138l-25 -84h104v-24h-223v24h83zM390 274l-79 253l-85 -253h164zM458 839l-97 -82h-32l39 101c10 27 14 33 33 35h55c9 -1 27 -2 27 -21c0 -10 -10 -20 -25 -33z" />
    <glyph glyph-name="Zcaron" unicode="&#x17d;" horiz-adv-x="688" 
d="M95 706h514l-422 -681h152c104 0 181 8 228 94c31 56 31 102 32 136h29v-255h-588l423 677h-167c-47 0 -106 -1 -145 -69c-28 -48 -29 -87 -29 -117h-27v215zM470 893l-108 -137h-38l-117 137h87l68 -85l64 85h44z" />
    <glyph glyph-name="ccedilla" unicode="&#xe7;" horiz-adv-x="500" 
d="M470 162l24 -8c-12 -34 -25 -70 -58 -104c-45 -46 -104 -60 -154 -60c-139 0 -231 107 -231 248s89 254 237 254c121 0 190 -76 190 -139c0 -38 -29 -51 -53 -51c-46 0 -46 37 -47 57c0 16 0 32 -4 48c-13 41 -49 59 -86 59c-119 0 -126 -150 -126 -224
c0 -93 24 -221 143 -221c24 0 43 5 57 10c73 28 94 91 108 131zM176 -123v79c25 10 51 20 81 20c73 0 107 -46 107 -91c0 -50 -43 -92 -104 -92c-39 0 -65 17 -90 32l16 21c17 -11 35 -24 60 -24c55 0 55 52 55 66c0 11 0 62 -47 62c-49 0 -52 -51 -53 -73h-25z" />
    <glyph glyph-name="logicalnot" unicode="&#xac;" horiz-adv-x="667" 
d="M607 0v262h-607v59h667v-321h-60z" />
    <glyph glyph-name="Atilde" unicode="&#xc3;" horiz-adv-x="708" 
d="M140 111l201 603h20l198 -601l31 -89h90v-24h-319v24h103l-23 84l-43 138h-182l-46 -138l-25 -84h104v-24h-223v24h83zM390 274l-79 253l-85 -253h164zM200 760l-25 13c38 77 58 114 106 114c16 0 33 -5 49 -11c20 -8 40 -17 61 -25c14 -6 28 -11 43 -11
c32 0 44 23 57 49l27 -11c-30 -67 -54 -113 -106 -113c-16 0 -31 5 -44 9c-26 10 -51 23 -77 31c-11 3 -22 6 -33 6c-30 0 -40 -18 -58 -51z" />
    <glyph glyph-name="Thorn" unicode="&#xde;" horiz-adv-x="583" 
d="M234 682l-1 -94h100c38 -1 89 -2 134 -22c64 -30 92 -94 92 -173c0 -184 -147 -186 -211 -187h-115v-83l1 -99h92v-24h-296v24h91l1 99v466l-1 93h-91v24h296v-24h-92zM323 560h-90v-326h90c99 4 120 56 120 156c0 163 -75 168 -120 170z" />
    <glyph glyph-name="onequarter" unicode="&#xbc;" horiz-adv-x="833" 
d="M73 539l-16 21c40 29 80 59 108 100c4 4 19 30 22 36h39l-1 -79v-297l1 -50h69v-24h-217v24h68l1 50v254l1 26c-28 -27 -43 -38 -75 -61zM221 0l340 688h49l-340 -688h-49zM489 168l154 211c16 22 24 34 49 74h37v-282h43v55h31v-142h-31v55h-43v-139h-77v139h-163v29z
M652 171v169l-123 -169h123z" />
    <glyph glyph-name="Acircumflex" unicode="&#xc2;" horiz-adv-x="708" 
d="M140 111l201 603h20l198 -601l31 -89h90v-24h-319v24h103l-23 84l-43 138h-182l-46 -138l-25 -84h104v-24h-223v24h83zM390 274l-79 253l-85 -253h164zM232 756l108 137h38l117 -137h-87l-68 85l-64 -85h-44z" />
    <glyph glyph-name="Odieresis" unicode="&#xd6;" horiz-adv-x="771" 
d="M381 716c208 2 329 -149 329 -349c0 -168 -82 -378 -326 -378c-44 0 -86 7 -125 22c-65 27 -122 81 -155 141c-30 54 -46 126 -46 199c0 227 130 363 323 365zM389 688c-71 0 -114 -28 -134 -48c-38 -38 -68 -100 -68 -290c0 -49 2 -93 7 -136c4 -30 9 -60 21 -88
c36 -84 114 -108 170 -108c55 0 100 21 128 49c57 57 67 156 67 278c0 42 -1 85 -5 128c-5 60 -18 214 -186 215zM458 780c-11 11 -18 27 -18 43c0 33 28 60 60 60c34 0 61 -27 61 -60s-27 -61 -61 -61c-15 0 -31 7 -42 18zM223 780c-11 11 -18 27 -18 43c0 33 28 60 60 60
c34 0 61 -27 61 -60s-27 -61 -61 -61c-15 0 -31 7 -42 18z" />
    <glyph glyph-name="threequarters" unicode="&#xbe;" horiz-adv-x="833" 
d="M82 688h221l3 -18l-137 -131l3 1c9 1 17 2 26 2c60 0 117 -48 117 -144c0 -92 -53 -158 -149 -158c-97 0 -123 66 -138 104l29 10c11 -27 31 -83 98 -83s75 63 75 128c0 53 -5 111 -59 111c-34 0 -53 -19 -90 -57l-22 20l151 144h-126l-24 -61l-26 11zM233 0l340 688h48
l-339 -688h-49zM489 168l154 211c16 22 24 35 49 74h37v-282h43v55h31v-142h-31v55h-43v-139h-77v139h-163v29zM652 171v169l-123 -169h123z" />
    <glyph glyph-name="Ucircumflex" unicode="&#xdb;" horiz-adv-x="771" 
d="M29 706h298v-24h-99l-1 -85v-382c1 -99 3 -193 189 -193c188 0 200 82 203 171v404l-1 85h-101v24h221v-24h-87l-1 -85v-364c-1 -131 -2 -243 -261 -243c-37 0 -125 4 -181 27c-89 38 -91 116 -92 212v368l-1 85h-86v24zM263 756l108 137h38l117 -137h-87l-68 85l-64 -85
h-44z" />
    <glyph glyph-name="Ugrave" unicode="&#xd9;" horiz-adv-x="771" 
d="M29 706h298v-24h-99l-1 -85v-382c1 -99 3 -193 189 -193c188 0 200 82 203 171v404l-1 85h-101v24h221v-24h-87l-1 -85v-364c-1 -131 -2 -243 -261 -243c-37 0 -125 4 -181 27c-89 38 -91 116 -92 212v368l-1 85h-86v24zM438 757h-32l-97 82c-15 13 -25 23 -25 33
c0 19 18 20 27 21h55c19 -2 23 -8 33 -35z" />
    <glyph glyph-name="Udieresis" unicode="&#xdc;" horiz-adv-x="771" 
d="M29 706h298v-24h-99l-1 -85v-382c1 -99 3 -193 189 -193c188 0 200 82 203 171v404l-1 85h-101v24h221v-24h-87l-1 -85v-364c-1 -131 -2 -243 -261 -243c-37 0 -125 4 -181 27c-89 38 -91 116 -92 212v368l-1 85h-86v24zM480 780c-11 11 -18 27 -18 43c0 33 28 60 60 60
c34 0 61 -27 61 -60s-27 -61 -61 -61c-15 0 -31 7 -42 18zM245 780c-11 11 -18 27 -18 43c0 33 28 60 60 60c34 0 61 -27 61 -60s-27 -61 -61 -61c-15 0 -31 7 -42 18z" />
    <glyph glyph-name="Iacute" unicode="&#xcd;" horiz-adv-x="354" 
d="M30 706h296v-24h-92l-1 -93v-467l1 -98h92v-24h-296v24h91l1 98v467l-1 93h-91v24zM255 839l-97 -82h-32l39 101c10 27 14 33 33 35h55c9 -1 27 -2 27 -21c0 -10 -10 -20 -25 -33z" />
    <glyph glyph-name="Agrave" unicode="&#xc0;" horiz-adv-x="708" 
d="M140 111l201 603h20l198 -601l31 -89h90v-24h-319v24h103l-23 84l-43 138h-182l-46 -138l-25 -84h104v-24h-223v24h83zM390 274l-79 253l-85 -253h164zM376 757h-32l-97 82c-15 13 -25 23 -25 33c0 19 18 20 27 21h55c19 -2 23 -8 33 -35z" />
    <glyph glyph-name="degree" unicode="&#xb0;" horiz-adv-x="354" 
d="M176 454c-75 0 -146 61 -146 146s68 148 146 148c81 0 148 -66 148 -147s-68 -147 -148 -147zM175 514c43 -1 89 32 89 87c0 49 -39 87 -87 87c-53 0 -87 -43 -87 -87c0 -47 38 -86 85 -87z" />
    <glyph glyph-name="onehalf" unicode="&#xbd;" horiz-adv-x="833" 
d="M73 539l-16 21c40 29 80 59 108 99c4 5 19 31 22 36h39l-1 -78v-297l1 -50h69v-24h-217v24h68l1 50v254l1 26c-28 -27 -43 -38 -75 -61zM221 0l341 687h48l-340 -687h-49zM586 179l-17 12c-38 28 -62 71 -62 118c0 77 61 138 151 138c79 0 134 -52 134 -127
c0 -74 -43 -109 -128 -177c-29 -24 -56 -48 -84 -73h72c58 0 83 1 101 19c7 7 9 11 27 47l25 -10l-51 -126h-267l-3 19c165 149 225 208 225 297c0 68 -41 93 -82 93c-58 0 -91 -52 -91 -101c0 -33 14 -61 32 -79c7 -7 9 -9 34 -25z" />
    <glyph glyph-name="minus" unicode="&#x2212;" horiz-adv-x="667" 
d="M667 321v-59h-667v59h667z" />
    <glyph glyph-name="Yacute" unicode="&#xdd;" horiz-adv-x="625" 
d="M410 706h214v-24h-78l-41 -77l-127 -250v-240l1 -91h92v-24h-297v24h92l1 92v239l-143 250l-46 77h-78v24h316v-24h-104l37 -72l118 -215l109 215l35 72h-101v24zM422 839l-97 -82h-32l39 101c10 27 14 33 33 35h55c9 -1 27 -2 27 -21c0 -10 -10 -20 -25 -33z" />
    <glyph glyph-name="twosuperior" unicode="&#xb2;" horiz-adv-x="354" 
d="M107 425l-17 12c-38 28 -62 71 -62 118c0 77 61 138 151 138c79 0 134 -52 134 -127c0 -74 -43 -109 -128 -178c-29 -23 -56 -47 -84 -72h72c58 0 83 1 101 19c7 7 9 11 27 47l25 -10l-51 -126h-267l-3 19c165 149 225 208 225 297c0 68 -41 93 -82 93
c-58 0 -91 -52 -91 -101c0 -33 14 -61 32 -79c7 -7 9 -9 34 -26z" />
    <glyph glyph-name="Uacute" unicode="&#xda;" horiz-adv-x="771" 
d="M29 706h298v-24h-99l-1 -85v-382c1 -99 3 -193 189 -193c188 0 200 82 203 171v404l-1 85h-101v24h221v-24h-87l-1 -85v-364c-1 -131 -2 -243 -261 -243c-37 0 -125 4 -181 27c-89 38 -91 116 -92 212v368l-1 85h-86v24zM463 839l-97 -82h-32l39 101c10 27 14 33 33 35
h55c9 -1 27 -2 27 -21c0 -10 -10 -20 -25 -33z" />
    <glyph glyph-name="registered" unicode="&#xae;" horiz-adv-x="833" 
d="M619 246l31 -5c-7 -34 -24 -114 -83 -114s-72 53 -88 121c-17 71 -24 99 -83 103h-34v-121c0 -49 0 -58 51 -65v-34c-32 1 -48 2 -78 2c-32 0 -61 -1 -93 -2v33c45 7 45 9 46 66v261c0 38 1 49 -46 52v34c56 -2 68 -2 87 -2c16 0 94 2 112 2c39 0 74 -3 101 -17
c30 -16 54 -47 54 -90c0 -36 -19 -91 -109 -105c42 -13 53 -55 60 -83l9 -39c9 -34 13 -52 29 -52c12 0 25 9 34 55zM362 473v-78h35c32 0 43 1 57 4c32 6 64 28 64 70c0 13 -3 27 -11 39c-20 29 -53 31 -79 31c-65 0 -66 -11 -66 -66zM773 351c-1 -197 -156 -354 -357 -354
c-185 0 -355 145 -355 356c0 205 164 356 356 356c206 0 357 -163 356 -358zM741 351c1 179 -138 326 -322 326c-183 0 -326 -146 -326 -324c0 -182 146 -324 324 -324c182 0 323 143 324 322z" />
    <glyph glyph-name="copyright" unicode="&#xa9;" horiz-adv-x="833" 
d="M773 352c-1 -197 -155 -355 -357 -355c-185 0 -355 145 -355 356c0 205 164 356 356 356c206 0 357 -163 356 -357zM741 352c1 177 -137 325 -322 325c-184 0 -326 -146 -326 -324c0 -182 146 -324 324 -324c183 0 323 144 324 323zM569 264h24c0 -59 0 -78 1 -128
c-34 -2 -57 -5 -76 -7l-20 -3c-49 -4 -63 -6 -85 -6c-60 0 -121 16 -161 61c-33 38 -53 102 -53 180c0 37 2 124 68 177c29 23 76 41 142 41c20 0 40 -2 77 -6l22 -2c20 -2 36 -3 69 -3c5 -64 6 -72 12 -132h-24c-12 51 -29 122 -124 122c-141 0 -142 -148 -142 -191
c0 -28 2 -98 24 -147c25 -57 64 -79 124 -79c106 0 117 85 122 123z" />
    <glyph glyph-name="Ecircumflex" unicode="&#xca;" horiz-adv-x="688" 
d="M28 706h561l7 -220h-26c-8 54 -17 108 -58 149c-40 40 -87 41 -145 41h-135l-1 -78v-222h63c74 3 110 21 113 119v30h27v-336h-27v39c-3 88 -18 118 -115 120h-61v-241l1 -81h167c44 2 89 4 133 47c57 56 64 123 68 169h29l-8 -242h-593v24h93l1 84v490l-1 84h-93v24z
M222 756l108 137h38l117 -137h-87l-68 85l-64 -85h-44z" />
    <glyph glyph-name="trademark" unicode="&#x2122;" horiz-adv-x="771" 
d="M517 374l-99 238v-157c0 -40 3 -46 32 -49l8 -1v-31c-50 1 -63 1 -118 0v31l9 1c27 4 27 13 28 49v209l-3 3c-10 7 -14 8 -29 9v31c16 -1 32 -2 48 -2c15 0 30 1 45 2l101 -248l105 247c40 0 46 0 93 1v-31l-8 -1c-31 -3 -31 -13 -31 -54v-166c1 -44 1 -47 26 -49l7 -1
v-31c-20 1 -42 2 -64 2c-20 0 -41 -1 -62 -2v31l6 1c20 1 26 6 27 21v182l-99 -235h-22zM52 621h-30c2 32 3 46 4 85c47 0 94 -1 141 -1c46 0 93 1 140 1c1 -39 2 -53 4 -85h-30c-14 42 -19 52 -54 53h-29v-222c1 -38 1 -42 26 -45l19 -2v-31l-77 2l-77 -2v31l18 2
c28 3 28 11 28 45v222h-29c-35 -1 -40 -11 -54 -53z" />
    <glyph glyph-name="plusminus" unicode="&#xb1;" horiz-adv-x="667" 
d="M364 379v-256h-59v256h-264v59h264v256h59v-256h262v-59h-262zM626 59v-59h-585v59h585z" />
    <glyph glyph-name="Eth" unicode="&#xd0;" horiz-adv-x="792" 
d="M120 117v237h-99v36h99v194l-1 99h-93v23h392c44 -2 100 -3 161 -35c123 -65 150 -209 150 -313c0 -69 -11 -143 -40 -206c-69 -145 -191 -149 -277 -152h-386v24h93zM230 584v-194h192v-36h-192v-237l1 -89h148c51 0 98 1 144 49c40 41 82 133 82 276
c0 130 -34 231 -81 279c-45 45 -96 46 -168 46h-125z" />
    <glyph glyph-name="Adieresis" unicode="&#xc4;" horiz-adv-x="708" 
d="M140 111l201 603h20l198 -601l31 -89h90v-24h-319v24h103l-23 84l-43 138h-182l-46 -138l-25 -84h104v-24h-223v24h83zM390 274l-79 253l-85 -253h164zM425 780c-11 11 -18 27 -18 43c0 33 28 60 60 60c34 0 61 -27 61 -60s-27 -61 -61 -61c-15 0 -31 7 -42 18zM190 780
c-11 11 -18 27 -18 43c0 33 28 60 60 60c34 0 61 -27 61 -60s-27 -61 -61 -61c-15 0 -31 7 -42 18z" />
    <glyph glyph-name="Aring" unicode="&#xc5;" horiz-adv-x="708" 
d="M140 111l201 603h20l198 -601l31 -89h90v-24h-319v24h103l-23 84l-43 138h-182l-46 -138l-25 -84h104v-24h-223v24h83zM390 274l-79 253l-85 -253h164zM289 773c-16 16 -25 39 -25 62c0 47 39 87 87 87c47 0 87 -40 87 -87c0 -48 -40 -87 -87 -87c-23 0 -46 9 -62 25z
M310 794c10 -11 26 -17 41 -17c31 0 58 26 58 58s-27 58 -58 58c-33 0 -58 -27 -58 -58c0 -15 6 -30 17 -41z" />
    <glyph glyph-name="Ydieresis" unicode="&#x178;" horiz-adv-x="625" 
d="M410 706h214v-24h-78l-41 -77l-127 -250v-240l1 -91h92v-24h-297v24h92l1 92v239l-143 250l-46 77h-78v24h316v-24h-104l37 -72l118 -215l109 215l35 72h-101v24zM408 780c-11 11 -18 27 -18 43c0 33 28 60 60 60c34 0 61 -27 61 -60s-27 -61 -61 -61c-15 0 -31 7 -42 18
zM173 780c-11 11 -18 27 -18 43c0 33 28 60 60 60c34 0 61 -27 61 -60s-27 -61 -61 -61c-15 0 -31 7 -42 18z" />
    <glyph glyph-name="divide" unicode="&#xf7;" horiz-adv-x="667" 
d="M381 160c0 -23 -18 -45 -46 -45c-27 0 -46 20 -46 45c0 23 18 46 46 46s46 -22 46 -46zM381 420c0 -23 -18 -45 -46 -45c-27 0 -46 20 -46 45c0 23 18 46 46 46s46 -22 46 -46zM666 320v-59h-666v59h666z" />
    <glyph glyph-name="onesuperior" unicode="&#xb9;" horiz-adv-x="354" 
d="M73 539l-16 21c40 29 80 59 108 100c4 4 19 30 22 36h39l-1 -79v-297l1 -50h69v-24h-217v24h68l1 50v254l1 26c-28 -27 -43 -38 -75 -61z" />
    <glyph glyph-name="threesuperior" unicode="&#xb3;" horiz-adv-x="354" 
d="M82 688h221l3 -18l-137 -131l3 1c9 1 17 2 26 2c60 0 117 -48 117 -144c0 -92 -53 -158 -149 -158c-97 0 -123 66 -138 104l29 10c11 -27 31 -83 98 -83s75 63 75 128c0 53 -5 111 -59 111c-34 0 -53 -19 -90 -57l-22 20l151 144h-126l-24 -61l-26 11z" />
    <glyph glyph-name="Egrave" unicode="&#xc8;" horiz-adv-x="688" 
d="M28 706h561l7 -220h-26c-8 54 -17 108 -58 149c-40 40 -87 41 -145 41h-135l-1 -78v-222h63c74 3 110 21 113 119v30h27v-336h-27v39c-3 88 -18 118 -115 120h-61v-241l1 -81h167c44 2 89 4 133 47c57 56 64 123 68 169h29l-8 -242h-593v24h93l1 84v490l-1 84h-93v24z
M397 757h-32l-97 82c-15 13 -25 23 -25 33c0 19 18 20 27 21h55c19 -2 23 -8 33 -35z" />
    <glyph glyph-name="Idieresis" unicode="&#xcf;" horiz-adv-x="354" 
d="M30 706h296v-24h-92l-1 -93v-467l1 -98h92v-24h-296v24h91l1 98v467l-1 93h-91v24zM252 780c-11 11 -18 27 -18 43c0 33 28 60 60 60c34 0 61 -27 61 -60s-27 -61 -61 -61c-15 0 -31 7 -42 18zM17 780c-11 11 -18 27 -18 43c0 33 28 60 60 60c34 0 61 -27 61 -60
s-27 -61 -61 -61c-15 0 -31 7 -42 18z" />
    <glyph glyph-name="Scaron" unicode="&#x160;" 
d="M43 233h29c7 -42 16 -101 68 -154c47 -47 100 -56 140 -56c106 0 157 68 157 136c0 82 -74 114 -191 161c-85 35 -190 77 -190 202c0 121 97 197 227 197c70 0 124 -22 178 -43l4 -157h-30c-9 46 -16 82 -52 118c-40 40 -85 48 -116 48c-64 0 -135 -39 -135 -113
c0 -65 52 -91 79 -104c21 -10 128 -54 152 -65c45 -21 146 -68 146 -192c0 -113 -87 -224 -259 -224c-82 0 -138 22 -199 47zM397 893l-108 -137h-38l-117 137h87l68 -85l64 85h44z" />
    <glyph glyph-name="Icircumflex" unicode="&#xce;" horiz-adv-x="354" 
d="M30 706h296v-24h-92l-1 -93v-467l1 -98h92v-24h-296v24h91l1 98v467l-1 93h-91v24zM55 756l108 137h38l117 -137h-87l-68 85l-64 -85h-44z" />
    <glyph glyph-name="aacute" unicode="&#xe1;" 
d="M492 24h25v-24h-73c-13 0 -24 0 -36 2c-59 7 -69 44 -75 67c-19 -27 -55 -79 -158 -79c-17 0 -63 1 -94 32c-15 15 -37 49 -37 113c0 38 8 70 33 96c28 28 56 34 143 52c58 12 85 22 119 34v36c-1 68 -2 118 -81 118c-78 0 -79 -49 -80 -80c-1 -21 -2 -51 -48 -51
c-21 0 -49 0 -49 42c0 13 3 25 8 37c24 59 98 75 172 75c40 0 83 -6 114 -21c62 -31 62 -87 62 -133v-219c-1 -75 8 -97 55 -97zM339 205v86l-90 -27c-52 -16 -96 -35 -96 -134c0 -29 0 -106 68 -106c35 0 57 18 71 32c43 43 45 97 47 149zM370 646l-119 -121h-29l51 145
c10 27 18 35 44 36h45c13 0 31 -2 31 -23c0 -13 -11 -25 -23 -37z" />
    <glyph glyph-name="acircumflex" unicode="&#xe2;" 
d="M492 24h25v-24h-73c-13 0 -24 0 -36 2c-59 7 -69 44 -75 67c-19 -27 -55 -79 -158 -79c-17 0 -63 1 -94 32c-15 15 -37 49 -37 113c0 38 8 70 33 96c28 28 56 34 143 52c58 12 85 22 119 34v36c-1 68 -2 118 -81 118c-78 0 -79 -49 -80 -80c-1 -21 -2 -51 -48 -51
c-21 0 -49 0 -49 42c0 13 3 25 8 37c24 59 98 75 172 75c40 0 83 -6 114 -21c62 -31 62 -87 62 -133v-219c-1 -75 8 -97 55 -97zM339 205v86l-90 -27c-52 -16 -96 -35 -96 -134c0 -29 0 -106 68 -106c35 0 57 18 71 32c43 43 45 97 47 149zM171 523l100 183h17l106 -183h-78
l-57 104l-53 -104h-35z" />
    <glyph glyph-name="adieresis" unicode="&#xe4;" 
d="M492 24h25v-24h-73c-13 0 -24 0 -36 2c-59 7 -69 44 -75 67c-19 -27 -55 -79 -158 -79c-17 0 -63 1 -94 32c-15 15 -37 49 -37 113c0 38 8 70 33 96c28 28 56 34 143 52c58 12 85 22 119 34v36c-1 68 -2 118 -81 118c-78 0 -79 -49 -80 -80c-1 -21 -2 -51 -48 -51
c-21 0 -49 0 -49 42c0 13 3 25 8 37c24 59 98 75 172 75c40 0 83 -6 114 -21c62 -31 62 -87 62 -133v-219c-1 -75 8 -97 55 -97zM339 205v86l-90 -27c-52 -16 -96 -35 -96 -134c0 -29 0 -106 68 -106c35 0 57 18 71 32c43 43 45 97 47 149zM322 591c-10 10 -15 24 -15 38
c0 31 24 54 53 54c30 0 54 -25 54 -54s-24 -54 -54 -54c-14 0 -28 6 -38 16zM131 591c-10 10 -16 24 -16 38c0 31 25 54 54 54c30 0 54 -25 54 -54c-1 -29 -24 -54 -54 -54c-14 0 -28 6 -38 16z" />
    <glyph glyph-name="agrave" unicode="&#xe0;" 
d="M492 24h25v-24h-73c-13 0 -24 0 -36 2c-59 7 -69 44 -75 67c-19 -27 -55 -79 -158 -79c-17 0 -63 1 -94 32c-15 15 -37 49 -37 113c0 38 8 70 33 96c28 28 56 34 143 52c58 12 85 22 119 34v36c-1 68 -2 118 -81 118c-78 0 -79 -49 -80 -80c-1 -21 -2 -51 -48 -51
c-21 0 -49 0 -49 42c0 13 3 25 8 37c24 59 98 75 172 75c40 0 83 -6 114 -21c62 -31 62 -87 62 -133v-219c-1 -75 8 -97 55 -97zM339 205v86l-90 -27c-52 -16 -96 -35 -96 -134c0 -29 0 -106 68 -106c35 0 57 18 71 32c43 43 45 97 47 149zM271 665l52 -140h-27l-122 117
c-10 9 -23 21 -23 36c0 25 22 27 36 28h44c25 -2 29 -10 40 -41z" />
    <glyph glyph-name="aring" unicode="&#xe5;" 
d="M492 24h25v-24h-73c-13 0 -24 0 -36 2c-59 7 -69 44 -75 67c-19 -27 -55 -79 -158 -79c-17 0 -63 1 -94 32c-15 15 -37 49 -37 113c0 38 8 70 33 96c28 28 56 34 143 52c58 12 85 22 119 34v36c-1 68 -2 118 -81 118c-78 0 -79 -49 -80 -80c-1 -21 -2 -51 -48 -51
c-21 0 -49 0 -49 42c0 13 3 25 8 37c24 59 98 75 172 75c40 0 83 -6 114 -21c62 -31 62 -87 62 -133v-219c-1 -75 8 -97 55 -97zM339 205v86l-90 -27c-52 -16 -96 -35 -96 -134c0 -29 0 -106 68 -106c35 0 57 18 71 32c43 43 45 97 47 149zM205 557c-16 16 -26 39 -26 63
c0 48 40 88 88 88c49 0 89 -40 89 -88c0 -49 -40 -89 -89 -89c-23 0 -46 10 -62 26zM227 579c10 -11 25 -17 40 -17c32 0 58 26 58 58c0 31 -26 57 -58 57s-57 -25 -57 -57c0 -16 6 -30 17 -41z" />
    <glyph glyph-name="atilde" unicode="&#xe3;" 
d="M492 24h25v-24h-73c-13 0 -24 0 -36 2c-59 7 -69 44 -75 67c-19 -27 -55 -79 -158 -79c-17 0 -63 1 -94 32c-15 15 -37 49 -37 113c0 38 8 70 33 96c28 28 56 34 143 52c58 12 85 22 119 34v36c-1 68 -2 118 -81 118c-78 0 -79 -49 -80 -80c-1 -21 -2 -51 -48 -51
c-21 0 -49 0 -49 42c0 13 3 25 8 37c24 59 98 75 172 75c40 0 83 -6 114 -21c62 -31 62 -87 62 -133v-219c-1 -75 8 -97 55 -97zM339 205v86l-90 -27c-52 -16 -96 -35 -96 -134c0 -29 0 -106 68 -106c35 0 57 18 71 32c43 43 45 97 47 149zM139 552l-26 12
c24 59 45 109 96 109c10 0 19 -2 28 -5c25 -7 48 -20 72 -30c11 -5 25 -11 39 -11c30 0 44 25 59 51l25 -13c-30 -72 -51 -110 -99 -110c-13 0 -26 2 -41 8c-23 7 -45 19 -68 27c-8 3 -21 8 -34 8c-28 0 -40 -22 -51 -46z" />
    <glyph glyph-name="eacute" unicode="&#xe9;" horiz-adv-x="521" 
d="M466 148l26 -9c-29 -69 -71 -149 -212 -149c-43 0 -106 5 -163 62c-57 58 -67 132 -67 191c0 26 2 49 7 70c10 46 35 93 68 123c37 36 94 60 155 60c65 0 117 -26 152 -61c54 -55 59 -117 62 -162h-333c0 -56 0 -117 21 -168c30 -77 96 -85 126 -85c26 0 49 7 67 15
c58 30 80 85 91 113zM162 301h213c-1 38 -2 77 -17 111c-21 46 -58 56 -87 56c-96 0 -104 -107 -109 -167zM369 646l-119 -121h-29l51 145c10 27 18 35 44 36h45c13 0 31 -2 31 -23c0 -13 -11 -25 -23 -37z" />
    <glyph glyph-name="ecircumflex" unicode="&#xea;" horiz-adv-x="521" 
d="M466 148l26 -9c-29 -69 -71 -149 -212 -149c-43 0 -106 5 -163 62c-57 58 -67 132 -67 191c0 26 2 49 7 70c10 46 35 93 68 123c37 36 94 60 155 60c65 0 117 -26 152 -61c54 -55 59 -117 62 -162h-333c0 -56 0 -117 21 -168c30 -77 96 -85 126 -85c26 0 49 7 67 15
c58 30 80 85 91 113zM162 301h213c-1 38 -2 77 -17 111c-21 46 -58 56 -87 56c-96 0 -104 -107 -109 -167zM175 523l100 183h17l106 -183h-78l-57 104l-53 -104h-35z" />
    <glyph glyph-name="edieresis" unicode="&#xeb;" horiz-adv-x="521" 
d="M466 148l26 -9c-29 -69 -71 -149 -212 -149c-43 0 -106 5 -163 62c-57 58 -67 132 -67 191c0 26 2 49 7 70c10 46 35 93 68 123c37 36 94 60 155 60c65 0 117 -26 152 -61c54 -55 59 -117 62 -162h-333c0 -56 0 -117 21 -168c30 -77 96 -85 126 -85c26 0 49 7 67 15
c58 30 80 85 91 113zM162 301h213c-1 38 -2 77 -17 111c-21 46 -58 56 -87 56c-96 0 -104 -107 -109 -167zM334 579c-10 10 -15 24 -15 38c0 31 24 54 53 54c30 0 54 -25 54 -54s-24 -54 -54 -54c-14 0 -28 6 -38 16zM143 579c-10 10 -16 24 -16 38c0 31 25 54 54 54
c30 0 54 -25 54 -54c-1 -29 -24 -54 -54 -54c-14 0 -28 6 -38 16z" />
    <glyph glyph-name="egrave" unicode="&#xe8;" horiz-adv-x="521" 
d="M466 148l26 -9c-29 -69 -71 -149 -212 -149c-43 0 -106 5 -163 62c-57 58 -67 132 -67 191c0 26 2 49 7 70c10 46 35 93 68 123c37 36 94 60 155 60c65 0 117 -26 152 -61c54 -55 59 -117 62 -162h-333c0 -56 0 -117 21 -168c30 -77 96 -85 126 -85c26 0 49 7 67 15
c58 30 80 85 91 113zM162 301h213c-1 38 -2 77 -17 111c-21 46 -58 56 -87 56c-96 0 -104 -107 -109 -167zM280 665l52 -140h-27l-122 117c-10 9 -23 21 -23 36c0 25 22 27 36 28h44c25 -2 29 -10 40 -41z" />
    <glyph glyph-name="iacute" unicode="&#xed;" horiz-adv-x="313" 
d="M24 483h93c40 1 54 1 93 4l-1 -105v-273l1 -85h80v-24h-266v24h86l1 85v273l-1 77h-86v24zM249 646l-119 -121h-29l51 145c10 27 18 35 44 36h45c13 0 31 -2 31 -23c0 -13 -11 -25 -23 -37z" />
    <glyph glyph-name="icircumflex" unicode="&#xee;" horiz-adv-x="313" 
d="M24 483h93c40 1 54 1 93 4l-1 -105v-273l1 -85h80v-24h-266v24h86l1 85v273l-1 77h-86v24zM55 523l100 183h17l106 -183h-78l-57 104l-53 -104h-35z" />
    <glyph glyph-name="idieresis" unicode="&#xef;" horiz-adv-x="313" 
d="M24 483h93c40 1 54 1 93 4l-1 -105v-273l1 -85h80v-24h-266v24h86l1 85v273l-1 77h-86v24zM214 579c-10 10 -15 24 -15 38c0 31 24 54 53 54c30 0 54 -25 54 -54s-24 -54 -54 -54c-14 0 -28 6 -38 16zM23 579c-10 10 -16 24 -16 38c0 31 25 54 54 54c30 0 54 -25 54 -54
c-1 -29 -24 -54 -54 -54c-14 0 -28 6 -38 16z" />
    <glyph glyph-name="igrave" unicode="&#xec;" horiz-adv-x="313" 
d="M24 483h93c40 1 54 1 93 4l-1 -105v-273l1 -85h80v-24h-266v24h86l1 85v273l-1 77h-86v24zM155 665l52 -140h-27l-122 117c-10 9 -23 21 -23 36c0 25 22 27 36 28h44c25 -2 29 -10 40 -41z" />
    <glyph glyph-name="ntilde" unicode="&#xf1;" horiz-adv-x="625" 
d="M518 103l1 -79h78v-24h-258v24h79l1 79v182c-1 102 -1 132 -26 156c-16 15 -37 16 -46 16c-36 0 -63 -18 -82 -36c-53 -53 -55 -124 -57 -187v-131l1 -79h82v-24h-268v24h88l1 79v269l-1 87h-88v24h95c44 0 59 1 95 4l-1 -94c26 39 64 98 172 98c135 0 135 -104 135 -159
c0 -24 0 -49 -1 -73v-156zM179 552l-26 12c24 59 45 109 96 109c10 0 19 -2 28 -5c25 -7 48 -20 72 -30c11 -5 25 -11 39 -11c30 0 44 25 59 51l25 -13c-30 -72 -51 -110 -99 -110c-13 0 -26 2 -41 8c-23 7 -45 19 -68 27c-8 3 -21 8 -34 8c-28 0 -40 -22 -51 -46z" />
    <glyph glyph-name="oacute" unicode="&#xf3;" horiz-adv-x="562" 
d="M283 497c130 1 226 -103 226 -254c0 -150 -99 -252 -230 -252c-127 0 -229 99 -229 249c0 171 114 256 233 257zM280 471c-104 -2 -117 -99 -117 -234c0 -138 18 -220 116 -220c114 0 118 98 118 225c0 60 -4 98 -5 111c-5 37 -14 120 -112 118zM380 646l-119 -121h-29
l51 145c10 27 18 35 44 36h45c13 0 31 -2 31 -23c0 -13 -11 -25 -23 -37z" />
    <glyph glyph-name="ocircumflex" unicode="&#xf4;" horiz-adv-x="562" 
d="M283 497c130 1 226 -103 226 -254c0 -150 -99 -252 -230 -252c-127 0 -229 99 -229 249c0 171 114 256 233 257zM280 471c-104 -2 -117 -99 -117 -234c0 -138 18 -220 116 -220c114 0 118 98 118 225c0 60 -4 98 -5 111c-5 37 -14 120 -112 118zM181 523l100 183h17
l106 -183h-78l-57 104l-53 -104h-35z" />
    <glyph glyph-name="odieresis" unicode="&#xf6;" horiz-adv-x="562" 
d="M283 497c130 1 226 -103 226 -254c0 -150 -99 -252 -230 -252c-127 0 -229 99 -229 249c0 171 114 256 233 257zM280 471c-104 -2 -117 -99 -117 -234c0 -138 18 -220 116 -220c114 0 118 98 118 225c0 60 -4 98 -5 111c-5 37 -14 120 -112 118zM338 591
c-10 10 -15 24 -15 38c0 31 24 54 53 54c30 0 54 -25 54 -54s-24 -54 -54 -54c-14 0 -28 6 -38 16zM147 591c-10 10 -16 24 -16 38c0 31 25 54 54 54c30 0 54 -25 54 -54c-1 -29 -24 -54 -54 -54c-14 0 -28 6 -38 16z" />
    <glyph glyph-name="ograve" unicode="&#xf2;" horiz-adv-x="562" 
d="M283 497c130 1 226 -103 226 -254c0 -150 -99 -252 -230 -252c-127 0 -229 99 -229 249c0 171 114 256 233 257zM280 471c-104 -2 -117 -99 -117 -234c0 -138 18 -220 116 -220c114 0 118 98 118 225c0 60 -4 98 -5 111c-5 37 -14 120 -112 118zM287 665l52 -140h-27
l-122 117c-10 9 -23 21 -23 36c0 25 22 27 36 28h44c25 -2 29 -10 40 -41z" />
    <glyph glyph-name="otilde" unicode="&#xf5;" horiz-adv-x="562" 
d="M283 497c130 1 226 -103 226 -254c0 -150 -99 -252 -230 -252c-127 0 -229 99 -229 249c0 171 114 256 233 257zM280 471c-104 -2 -117 -99 -117 -234c0 -138 18 -220 116 -220c114 0 118 98 118 225c0 60 -4 98 -5 111c-5 37 -14 120 -112 118zM149 552l-26 12
c24 59 45 109 96 109c10 0 19 -2 28 -5c25 -7 48 -20 72 -30c11 -5 25 -11 39 -11c30 0 44 25 59 51l25 -13c-30 -72 -51 -110 -99 -110c-13 0 -26 2 -41 8c-23 7 -45 19 -68 27c-8 3 -21 8 -34 8c-28 0 -40 -22 -51 -46z" />
    <glyph glyph-name="scaron" unicode="&#x161;" horiz-adv-x="458" 
d="M57 181h28c3 -44 7 -91 47 -129c31 -29 63 -34 91 -34c72 0 112 36 112 86c0 57 -50 76 -117 99c-59 20 -148 51 -148 149c0 87 65 143 161 143c52 0 98 -16 140 -29l2 -128h-29c-7 40 -23 129 -117 129c-56 0 -88 -34 -88 -71c0 -18 7 -34 18 -45c14 -14 22 -17 100 -45
c78 -29 154 -60 154 -160c0 -91 -74 -156 -188 -156c-62 0 -114 16 -166 32v159zM338 706l-100 -183h-17l-106 183h79l56 -103l53 103h35z" />
    <glyph glyph-name="uacute" unicode="&#xfa;" horiz-adv-x="625" 
d="M325 483h96c47 0 58 1 95 4l-1 -104v-277l1 -82h83v-24h-84c-43 -1 -60 -2 -96 -4l-5 89c-18 -27 -63 -95 -171 -95c-48 0 -90 15 -112 39c-32 32 -32 81 -32 104l1 121l-3 205h-75v24h78c46 1 62 1 98 4l-1 -104v-169c1 -96 2 -144 29 -171c11 -11 31 -20 56 -20
c28 0 60 12 85 37c47 46 48 101 49 148v175l-1 76h-90v24zM416 646l-119 -121h-29l51 145c10 27 18 35 44 36h45c13 0 31 -2 31 -23c0 -13 -11 -25 -23 -37z" />
    <glyph glyph-name="ucircumflex" unicode="&#xfb;" horiz-adv-x="625" 
d="M325 483h96c47 0 58 1 95 4l-1 -104v-277l1 -82h83v-24h-84c-43 -1 -60 -2 -96 -4l-5 89c-18 -27 -63 -95 -171 -95c-48 0 -90 15 -112 39c-32 32 -32 81 -32 104l1 121l-3 205h-75v24h78c46 1 62 1 98 4l-1 -104v-169c1 -96 2 -144 29 -171c11 -11 31 -20 56 -20
c28 0 60 12 85 37c47 46 48 101 49 148v175l-1 76h-90v24zM211 523l100 183h17l106 -183h-78l-57 104l-53 -104h-35z" />
    <glyph glyph-name="udieresis" unicode="&#xfc;" horiz-adv-x="625" 
d="M325 483h96c47 0 58 1 95 4l-1 -104v-277l1 -82h83v-24h-84c-43 -1 -60 -2 -96 -4l-5 89c-18 -27 -63 -95 -171 -95c-48 0 -90 15 -112 39c-32 32 -32 81 -32 104l1 121l-3 205h-75v24h78c46 1 62 1 98 4l-1 -104v-169c1 -96 2 -144 29 -171c11 -11 31 -20 56 -20
c28 0 60 12 85 37c47 46 48 101 49 148v175l-1 76h-90v24zM356 591c-10 10 -15 24 -15 38c0 31 24 54 53 54c30 0 54 -25 54 -54s-24 -54 -54 -54c-14 0 -28 6 -38 16zM165 591c-10 10 -16 24 -16 38c0 31 25 54 54 54c30 0 54 -25 54 -54c-1 -29 -24 -54 -54 -54
c-14 0 -28 6 -38 16z" />
    <glyph glyph-name="ugrave" unicode="&#xf9;" horiz-adv-x="625" 
d="M325 483h96c47 0 58 1 95 4l-1 -104v-277l1 -82h83v-24h-84c-43 -1 -60 -2 -96 -4l-5 89c-18 -27 -63 -95 -171 -95c-48 0 -90 15 -112 39c-32 32 -32 81 -32 104l1 121l-3 205h-75v24h78c46 1 62 1 98 4l-1 -104v-169c1 -96 2 -144 29 -171c11 -11 31 -20 56 -20
c28 0 60 12 85 37c47 46 48 101 49 148v175l-1 76h-90v24zM286 665l52 -140h-27l-122 117c-10 9 -23 21 -23 36c0 25 22 27 36 28h44c25 -2 29 -10 40 -41z" />
    <glyph glyph-name="yacute" unicode="&#xfd;" 
d="M332 483h190v-24h-76l-32 -99l-130 -414c-24 -76 -54 -164 -148 -164c-98 0 -98 77 -98 82c0 38 24 52 46 52c11 0 22 -3 29 -11c11 -11 12 -13 15 -54c1 -10 3 -36 33 -36c54 0 80 88 110 185l-152 356l-46 103h-72v24h269v-24h-84l32 -81l98 -237l73 236l24 82h-81v24z
M396 646l-119 -121h-29l51 145c10 27 18 35 44 36h45c13 0 31 -2 31 -23c0 -13 -11 -25 -23 -37z" />
    <glyph glyph-name="ydieresis" unicode="&#xff;" 
d="M332 483h190v-24h-76l-32 -99l-130 -414c-24 -76 -54 -164 -148 -164c-98 0 -98 77 -98 82c0 38 24 52 46 52c11 0 22 -3 29 -11c11 -11 12 -13 15 -54c1 -10 3 -36 33 -36c54 0 80 88 110 185l-152 356l-46 103h-72v24h269v-24h-84l32 -81l98 -237l73 236l24 82h-81v24z
M345 579c-10 10 -15 24 -15 38c0 31 24 54 53 54c30 0 54 -25 54 -54s-24 -54 -54 -54c-14 0 -28 6 -38 16zM154 579c-10 10 -16 24 -16 38c0 31 25 54 54 54c30 0 54 -25 54 -54c-1 -29 -24 -54 -54 -54c-14 0 -28 6 -38 16z" />
    <glyph glyph-name="zcaron" unicode="&#x17e;" horiz-adv-x="500" 
d="M59 483h397l-304 -458h124c37 1 75 2 107 37c34 36 35 86 36 124h29v-186h-430l304 458h-85c-36 -1 -86 -2 -119 -34c-31 -30 -32 -73 -33 -105h-26v164zM359 706l-100 -183h-17l-106 183h79l56 -103l53 103h35z" />
    </font>
</defs>
</svg>
