<?xml version="1.0" encoding="UTF-8"?>
<svg width="203px" height="117px" viewBox="0 0 203 117" version="1.1" xmlns="http://www.w3.org/2000/svg" xmlns:xlink="http://www.w3.org/1999/xlink">
    <title>logo-bibliotheques-royaumont-white</title>
    <g id="Page-1" stroke="none" stroke-width="1" fill="none" fill-rule="evenodd">
        <g id="logo-bibliotheques-royaumont-white">
            <path d="M0,36.6 L0,77.8 L41.2,77.8 L41.2,36.6 L0,36.6 Z M29.4,50.3 C27.7,50.3 26.9,48.9 26.9,47.8 C26.9,46.6 27.5,45.7 28.1,45.4 C27.9,45.2 27.6,45.2 27.3,45.2 C25,45.2 20.9,48.8 20.9,56.1 L20.9,67.5 L26,67.5 L26,68.4 L11.6,68.4 L11.6,67.5 L16.3,67.5 L16.3,46.5 L11.6,46.5 L11.6,45.6 L16.3,45.6 C18.1,45.6 19.9,45.5 21,44.4 L21,51 L21.1,51 C21.8,48.5 23.7,44.4 28.3,44.4 C30.4,44.4 32,45.7 32,47.7 C32,49.1 31.1,50.3 29.4,50.3 Z" id="Shape" fill="#CC0000" fill-rule="nonzero"/>
            <g id="Group" transform="translate(60.800000, 35.100000)" fill="#CC0000" fill-rule="nonzero">
                <path d="M6.8,17.7 L1.42108547e-14,17.7 L1.42108547e-14,1.4 L6.6,1.4 C9.8,1.4 11.6,3.2 11.6,6 C11.6,7.8 10.4,9 9.6,9.4 C10.6,9.9 11.8,10.9 11.8,13.1 C11.8,16.1 9.7,17.7 6.8,17.7 Z M6.3,4.3 L3.2,4.3 L3.2,8.1 L6.3,8.1 C7.7,8.1 8.4,7.3 8.4,6.2 C8.4,5 7.6,4.3 6.3,4.3 Z M6.5,10.9 L3.2,10.9 L3.2,14.9 L6.5,14.9 C7.9,14.9 8.6,14 8.6,12.9 C8.6,11.8 7.9,10.9 6.5,10.9 Z" id="Shape"/>
                <path d="M14.8,3.8 L14.8,1.4 L17.8,1.4 L17.8,3.8 L14.8,3.8 Z M14.8,17.7 L14.8,5.8 L17.8,5.8 L17.8,17.7 L14.8,17.7 Z" id="Shape"/>
                <path d="M29.9,16.8 C29.2,17.5 28.2,17.9 27,17.9 C25.7,17.9 24.8,17.6 24,16.6 L24,17.7 L21.1,17.7 L21.1,1.4 L24.1,1.4 L24.1,6.9 C24.9,6 25.8,5.7 27,5.7 C28.2,5.7 29.2,6.1 29.9,6.8 C31.1,8 31.1,10 31.1,11.8 C31.1,13.6 31.1,15.6 29.9,16.8 Z M26.1,8.4 C24.3,8.4 24.1,9.9 24.1,11.8 C24.1,13.7 24.3,15.2 26.1,15.2 C27.9,15.2 28.1,13.7 28.1,11.8 C28.1,9.9 27.9,8.4 26.1,8.4 Z" id="Shape"/>
                <path d="M37.3,17.7 C34.8,17.7 33.8,16 33.8,14.3 L33.8,1.4 L36.8,1.4 L36.8,14.1 C36.8,14.8 37.1,15.2 37.9,15.2 L39,15.2 L39,17.7 L37.3,17.7 L37.3,17.7 Z" id="Path"/>
                <path d="M41.3,3.8 L41.3,1.4 L44.3,1.4 L44.3,3.8 L41.3,3.8 Z M41.4,17.7 L41.4,5.8 L44.4,5.8 L44.4,17.7 L41.4,17.7 Z" id="Shape"/>
                <path d="M55.9,16.4 C55.2,17.2 54,17.9 52.2,17.9 C50.4,17.9 49.2,17.2 48.5,16.4 C47.4,15.3 47.1,13.9 47.1,11.8 C47.1,9.6 47.4,8.3 48.5,7.2 C49.2,6.4 50.4,5.7 52.2,5.7 C54,5.7 55.2,6.4 55.9,7.2 C57,8.3 57.3,9.7 57.3,11.8 C57.3,13.9 57,15.3 55.9,16.4 Z M53.6,8.9 C53.3,8.6 52.8,8.4 52.2,8.4 C51.6,8.4 51.2,8.6 50.8,8.9 C50.2,9.5 50.1,10.5 50.1,11.8 C50.1,13 50.2,14.1 50.8,14.7 C51.1,15 51.6,15.2 52.2,15.2 C52.8,15.2 53.3,15 53.6,14.7 C54.2,14.1 54.3,13 54.3,11.8 C54.3,10.5 54.2,9.5 53.6,8.9 Z" id="Shape"/>
                <path d="M63.9,17.7 C61.5,17.7 60.4,16 60.4,14.3 L60.4,8.4 L59.1,8.4 L59.1,6.1 L60.4,6.1 L60.4,2.6 L63.4,2.6 L63.4,6.1 L65.5,6.1 L65.5,8.4 L63.4,8.4 L63.4,14.1 C63.4,14.8 63.7,15.2 64.4,15.2 L65.5,15.2 L65.5,17.7 L63.9,17.7 L63.9,17.7 Z" id="Path"/>
                <path d="M75,17.7 L75,10.4 C75,8.8 74,8.3 73.1,8.3 C72.2,8.3 71.2,8.9 71.2,10.5 L71.2,17.8 L68.2,17.8 L68.2,1.4 L71.2,1.4 L71.2,6.9 C72,6.1 73,5.7 74.1,5.7 C76.7,5.7 78.1,7.5 78.1,10.1 L78.1,17.8 L75,17.8 L75,17.7 Z" id="Path"/>
                <path d="M83.5,12.7 C83.5,14.2 84.4,15.4 86.1,15.4 C87.4,15.4 88,15 88.8,14.3 L90.6,16.1 C89.4,17.3 88.2,18 86.1,18 C83.3,18 80.6,16.7 80.6,11.9 C80.6,8 82.7,5.8 85.8,5.8 C89.1,5.8 91,8.2 91,11.5 L91,12.8 L83.5,12.8 L83.5,12.7 Z M85.2,3.9 L82.6,7.10542736e-15 L85.7,7.10542736e-15 L87.2,3.9 L85.2,3.9 Z M87.8,9.4 C87.5,8.7 86.8,8.2 85.8,8.2 C84.8,8.2 84.1,8.7 83.8,9.4 C83.6,9.8 83.5,10.2 83.5,10.7 L88,10.7 C88.1,10.1 88,9.8 87.8,9.4 Z" id="Shape"/>
                <path d="M100.3,22.1 L100.3,16.7 C99.5,17.6 98.6,17.9 97.4,17.9 C96.2,17.9 95.2,17.5 94.5,16.8 C93.3,15.6 93.3,13.5 93.3,11.8 C93.3,10 93.3,8 94.5,6.8 C95.2,6.1 96.3,5.7 97.4,5.7 C98.7,5.7 99.5,6 100.4,7 L100.4,5.9 L103.3,5.9 L103.3,22.2 L100.3,22.2 L100.3,22.1 Z M98.3,8.4 C96.5,8.4 96.3,9.9 96.3,11.8 C96.3,13.7 96.5,15.2 98.3,15.2 C100.1,15.2 100.3,13.7 100.3,11.8 C100.3,9.9 100,8.4 98.3,8.4 Z" id="Shape"/>
                <path d="M113.5,17.7 L113.5,16.6 C112.7,17.4 111.6,17.8 110.5,17.8 C109.3,17.8 108.3,17.4 107.7,16.7 C106.7,15.7 106.5,14.6 106.5,13.3 L106.5,5.7 L109.5,5.7 L109.5,12.9 C109.5,14.5 110.5,15.1 111.5,15.1 C112.4,15.1 113.5,14.6 113.5,12.9 L113.5,5.7 L116.5,5.7 L116.5,17.6 L113.5,17.6 L113.5,17.7 Z" id="Path"/>
                <path d="M122.1,12.7 C122.1,14.2 123,15.4 124.7,15.4 C126,15.4 126.6,15 127.4,14.3 L129.2,16.1 C128,17.3 126.8,18 124.7,18 C121.9,18 119.2,16.7 119.2,11.9 C119.2,8 121.3,5.8 124.4,5.8 C127.7,5.8 129.6,8.2 129.6,11.5 L129.6,12.8 L122.1,12.8 L122.1,12.7 Z M126.3,9.4 C126,8.7 125.3,8.2 124.3,8.2 C123.3,8.2 122.6,8.7 122.3,9.4 C122.1,9.8 122,10.2 122,10.7 L126.5,10.7 C126.6,10.1 126.5,9.8 126.3,9.4 Z" id="Shape"/>
                <path d="M136.2,17.9 C134.3,17.9 132.6,17.7 131.1,16.2 L133,14.3 C134,15.3 135.3,15.4 136.2,15.4 C137.2,15.4 138.3,15.1 138.3,14.2 C138.3,13.6 138,13.2 137,13.1 L135.1,12.9 C132.9,12.7 131.6,11.8 131.6,9.6 C131.6,7.1 133.8,5.8 136.2,5.8 C138.1,5.8 139.6,6.1 140.8,7.2 L139,9.1 C138.3,8.5 137.3,8.3 136.2,8.3 C135,8.3 134.5,8.8 134.5,9.4 C134.5,9.8 134.7,10.3 135.7,10.4 L137.6,10.6 C140,10.8 141.1,12.1 141.1,14.1 C141.3,16.6 139,17.9 136.2,17.9 Z" id="Path"/>
            </g>
            <line x1="41.2" y1="0" x2="41.2" y2="116.7" id="Path" stroke="#CC0000" stroke-width="3"/>
            <g id="Group" transform="translate(60.700000, 61.300000)" fill="#CC0000" fill-rule="nonzero">
                <path d="M8.3,16.5 L5.4,10.4 L4,10.4 L4,16.5 L0,16.5 L0,0.2 L6.5,0.2 C10.1,0.2 12.1,2.8 12.1,5.4 C12.1,7.6 10.7,9 9.4,9.7 L12.9,16.5 L8.3,16.5 Z M6.2,3.8 L4,3.8 L4,7 L6.2,7 C7.3,7 7.9,6.2 7.9,5.4 C8,4.5 7.3,3.8 6.2,3.8 Z" id="Shape"/>
                <path d="M26.3,14.8 C25.1,16 23.7,16.6 21.7,16.6 C19.7,16.6 18.3,16 17.1,14.8 C15.4,13.1 15.5,10.8 15.5,8.3 C15.5,5.8 15.4,3.6 17.1,1.8 C18.3,0.6 19.7,7.10542736e-15 21.7,7.10542736e-15 C23.7,7.10542736e-15 25.1,0.6 26.3,1.8 C28,3.5 27.9,5.8 27.9,8.3 C27.9,10.8 28,13.1 26.3,14.8 Z M23.3,4.4 C23,4 22.5,3.7 21.8,3.7 C21.1,3.7 20.6,4 20.3,4.4 C19.9,4.9 19.7,5.4 19.7,8.3 C19.7,11.2 19.9,11.7 20.3,12.2 C20.6,12.6 21.1,12.9 21.8,12.9 C22.5,12.9 23,12.6 23.3,12.2 C23.6,11.7 23.8,11.2 23.8,8.3 C23.8,5.4 23.6,4.9 23.3,4.4 Z" id="Shape"/>
                <polygon id="Path" points="38.8 10.1 38.8 16.5 34.8 16.5 34.8 10.1 29.8 0.2 34.3 0.2 36.9 6 39.4 0.2 43.8 0.2"/>
                <path d="M53.9,16.5 L53.1,14.1 L48.1,14.1 L47.3,16.5 L43.3,16.5 L49.2,0.2 L52.3,0.2 L58.2,16.5 L53.9,16.5 Z M50.7,5.9 L49.2,10.7 L52.1,10.7 L50.7,5.9 Z" id="Shape"/>
                <path d="M66.8,16.6 C63.4,16.6 60.6,14.3 60.6,10.7 L60.6,0.2 L64.7,0.2 L64.7,10.6 C64.7,12.1 65.5,13 66.8,13 C68.1,13 68.9,12.1 68.9,10.6 L68.9,0.2 L73,0.2 L73,10.8 C73,14.3 70.2,16.6 66.8,16.6 Z" id="Path"/>
                <polygon id="Path" points="89.2 16.5 89.2 7.5 86.5 12.7 83.9 12.7 81.2 7.5 81.2 16.5 77.6 16.5 77.6 0.2 81.4 0.2 85.3 7.6 89.2 0.2 92.9 0.2 92.9 16.5 89.2 16.5"/>
                <path d="M107.8,14.8 C106.6,16 105.2,16.6 103.2,16.6 C101.2,16.6 99.8,16 98.6,14.8 C96.9,13.1 97,10.8 97,8.3 C97,5.8 96.9,3.6 98.6,1.8 C99.8,0.6 101.2,7.10542736e-15 103.2,7.10542736e-15 C105.2,7.10542736e-15 106.6,0.6 107.8,1.8 C109.5,3.5 109.4,5.8 109.4,8.3 C109.4,10.8 109.5,13.1 107.8,14.8 Z M104.8,4.4 C104.5,4 104,3.7 103.3,3.7 C102.6,3.7 102.1,4 101.8,4.4 C101.4,4.9 101.2,5.4 101.2,8.3 C101.2,11.2 101.4,11.7 101.8,12.2 C102.1,12.6 102.6,12.9 103.3,12.9 C104,12.9 104.5,12.6 104.8,12.2 C105.1,11.7 105.3,11.2 105.3,8.3 C105.3,5.4 105.1,4.9 104.8,4.4 Z" id="Shape"/>
                <polygon id="Path" points="123.1 16.5 117.2 7.5 117.2 16.5 113.6 16.5 113.6 0.2 116.9 0.2 122.8 9.2 122.8 0.2 126.4 0.2 126.4 16.5"/>
                <polygon id="Path" points="138.1 3.7 138.1 16.4 134.1 16.4 134.1 3.7 130.1 3.7 130.1 0.1 142.1 0.1 142.1 3.7"/>
            </g>
        </g>
    </g>
</svg>